<?xml version="1.0" encoding="UTF-8"?>
<svg width="207px" height="127px" viewBox="0 0 207 127" version="1.1" xmlns="http://www.w3.org/2000/svg" xmlns:xlink="http://www.w3.org/1999/xlink">
    <!-- Generator: Sketch 45 (43475) - http://www.bohemiancoding.com/sketch -->
    <title>Group 92</title>
    <desc>Created with Sketch.</desc>
    <defs></defs>
    <g id="V2-Final" stroke="none" stroke-width="1" fill="none" fill-rule="evenodd">
        <g id="V2-Homepage-Copy" transform="translate(-828.000000, -1282.000000)">
            <g id="Group-92" transform="translate(826.000000, 1282.000000)">
                <g id="Group-90">
                    <g id="Group-32-Copy-2" transform="translate(81.246094, 79.026780)" fill="#FFFFFF">
                        <g id="Group-33" transform="translate(0.392309, 0.097214)">
                            <circle id="Oval-Copy" cx="22.2740277" cy="12.1020593" r="11.8568196"></circle>
                            <path d="M0.100496001,46.9036108 C1.42454396,31.7355639 6.52537722,27.0950689 13.3878334,25.6824551 C15.922276,27.401508 18.9808666,28.4058233 22.2740277,28.4058233 C25.6157669,28.4058233 28.7159642,27.3716598 31.2720372,25.6059152 C38.1036424,26.9149249 43.1686837,31.4175903 44.4622548,46.9036106 L0.100495485,46.9036167 Z" id="Combined-Shape"></path>
                        </g>
                    </g>
                    <g id="Group-84">
                        <g id="Group-63">
                            <g id="Group-67">
                                <rect id="Rectangle-3" fill="#F48972" transform="translate(199.305694, 18.044575) rotate(-315.000000) translate(-199.305694, -18.044575) " x="193.805694" y="12.5445751" width="11" height="11" rx="0.799999952"></rect>
                                <rect id="Rectangle-3" fill="#EEFF88" transform="translate(199.851302, 55.663103) rotate(-45.000000) translate(-199.851302, -55.663103) " x="193.351302" y="49.1631033" width="13" height="13" rx="0.799999952"></rect>
                                <rect id="Rectangle-3" fill="#EEFF88" transform="translate(199.851302, 94.663103) rotate(-45.000000) translate(-199.851302, -94.663103) " x="193.351302" y="88.1631033" width="13" height="13" rx="0.799999952"></rect>
                                <path d="M124.597928,18.1654456 C124.199745,18.1644097 123.876953,18.4935664 123.876953,18.891645 L123.876953,18.8583007 C123.876953,19.2604055 124.197154,19.5872089 124.597928,19.5882515 L139.935031,19.628153 C140.333214,19.6291889 140.656006,19.3000322 140.656006,18.9019536 L140.656006,18.9352979 C140.656006,18.5331931 140.335805,18.2063897 139.935031,18.2053471 L124.597928,18.1654456 Z" id="Rectangle-3-Copy-86" fill="#EEFF88" transform="translate(132.266479, 18.896799) scale(-1, 1) rotate(-180.000000) translate(-132.266479, -18.896799) "></path>
                                <path d="M177.244867,55.1652278 C176.841286,55.1643122 176.51412,55.4935664 176.51412,55.891645 L176.51412,55.8583007 C176.51412,56.2604055 176.848071,56.5871335 177.244867,56.5880337 L195.023647,56.6283708 C195.427228,56.6292864 195.754395,56.3000322 195.754395,55.9019536 L195.754395,55.9352979 C195.754395,55.5331931 195.420444,55.2064651 195.023647,55.2055648 L177.244867,55.1652278 Z" id="Rectangle-3-Copy-86" fill="#EEFF88" transform="translate(186.134257, 55.896799) scale(-1, 1) rotate(-180.000000) translate(-186.134257, -55.896799) "></path>
                                <path d="M187.424219,74.9232925 C187.020317,74.9226225 186.69289,75.2520759 186.69289,75.6501545 L186.69289,75.6168102 C186.69289,76.018915 187.025632,76.3454373 187.424219,76.3460984 L212.278384,76.3873251 C212.682286,76.3879951 213.009713,76.0585417 213.009713,75.6604631 L213.009713,75.6938074 C213.009713,75.2917026 212.676972,74.9651804 212.278384,74.9645192 L187.424219,74.9232925 Z" id="Rectangle-3-Copy-86" fill="#EEFF88" transform="translate(199.851302, 75.655309) scale(-1, 1) rotate(-270.000000) translate(-199.851302, -75.655309) "></path>
                                <path d="M17.421181,54.9229514 C17.0189568,54.9224698 16.6928896,55.2520759 16.6928896,55.6501545 L16.6928896,55.6168102 C16.6928896,56.018915 17.0192205,56.345276 17.421181,56.3457573 L52.4240523,56.3876662 C52.8262766,56.3881478 53.1523437,56.0585417 53.1523437,55.6604631 L53.1523437,55.6938074 C53.1523437,55.2917026 52.8260129,54.9653416 52.4240523,54.9648603 L17.421181,54.9229514 Z" id="Rectangle-3-Copy-86" fill="#F53F89" transform="translate(34.922617, 55.655309) scale(-1, 1) translate(-34.922617, -55.655309) "></path>
                                <rect id="Rectangle-3" fill="#694095" transform="translate(11.484375, 17.044575) rotate(-315.000000) translate(-11.484375, -17.044575) " x="4.984375" y="10.5445751" width="13" height="13" rx="0.799999952"></rect>
                                <rect id="Rectangle-3-Copy-65" stroke="#EEFF88" transform="translate(79.586333, 18.935665) rotate(-90.000000) translate(-79.586333, -18.935665) " x="61.3187559" y="-25.7055411" width="36.535154" height="89.2824123" rx="3.79999995"></rect>
                                <rect id="Rectangle-3-Copy-65" stroke="#EEFF88" transform="translate(158.577551, 38.394075) rotate(-360.000000) translate(-158.577551, -38.394075) " x="140.309974" y="0.894075258" width="36.535154" height="75" rx="3.79999995"></rect>
                                <rect id="Rectangle-3" fill="#14A9F1" transform="translate(158.028832, 95.254443) rotate(-45.000000) translate(-158.028832, -95.254443) " x="153.028832" y="90.2544427" width="10" height="10" rx="0.799999952"></rect>
                                <rect id="Rectangle-3" fill="#14A9F1" transform="translate(102.028832, 55.254443) rotate(-45.000000) translate(-102.028832, -55.254443) " x="97.0288325" y="50.2544427" width="10" height="10" rx="0.799999952"></rect>
                                <circle id="Oval-Copy" stroke="#EEFF88" cx="158.82527" cy="55.6631033" r="10.3543697"></circle>
                                <g id="Group-59" transform="translate(91.000000, 6.865351)">
                                    <circle id="Oval-Copy" stroke="#FFFFFF" cx="11.1811055" cy="11.6792236" r="10.2414237"></circle>
                                    <circle id="Oval-Copy" fill="#F48972" cx="11.1811055" cy="11.6792236" r="3.46390776"></circle>
                                </g>
                                <g id="Group-58" transform="translate(46.000000, 7.044575)">
                                    <rect id="Rectangle-3" fill="#FFFFFF" transform="translate(11.677290, 11.679224) rotate(-45.000000) translate(-11.677290, -11.679224) " x="9.02778274" y="9.02971654" width="5.29901421" height="5.29901421" rx="0.300000012"></rect>
                                    <rect id="Rectangle-3" stroke="#F53F89" transform="translate(11.677290, 11.679224) rotate(-135.000000) translate(-11.677290, -11.679224) " x="3.98573491" y="3.98766871" width="15.3831099" height="15.3831099" rx="0.799999952"></rect>
                                </g>
                                <circle id="Oval-Copy" fill="#F53F89" transform="translate(57.677290, 55.663103) rotate(-450.000000) translate(-57.677290, -55.663103) " cx="57.6772898" cy="55.6631033" r="7.28286253"></circle>
                                <circle id="Oval-Copy" fill="#CD2F81" transform="translate(158.825270, 55.663103) rotate(-450.000000) translate(-158.825270, -55.663103) " cx="158.82527" cy="55.6631033" r="3.63743972"></circle>
                                <rect id="Rectangle-3" fill="#F53F89" transform="translate(11.484375, 55.663103) rotate(-45.000000) translate(-11.484375, -55.663103) " x="4.984375" y="49.1631033" width="13" height="13" rx="0.799999952"></rect>
                                <g id="Group-36" transform="translate(11.898589, 96.050880) rotate(-45.000000) translate(-11.898589, -96.050880) translate(3.898589, 88.050880)" fill="#38A8F9">
                                    <path d="M1.90950546,6.06319447 C1.08489111,6.05827888 0.416409107,6.73024108 0.416409107,7.54564394 L0.416409107,7.47734327 C0.416409107,8.3009931 1.08029495,8.97265069 1.90950546,8.97759368 L13.9233128,9.04920897 C14.7479271,9.05412456 15.4164091,8.38216236 15.4164091,7.5667595 L15.4164091,7.63506017 C15.4164091,6.81141034 14.7525233,6.13975275 13.9233128,6.13480976 L1.90950546,6.06319447 Z" id="Rectangle-3-Copy-38" transform="translate(7.916409, 7.556202) scale(-1, 1) rotate(-90.000000) translate(-7.916409, -7.556202) "></path>
                                    <path d="M1.90950546,6.06319447 C1.08489111,6.05827888 0.416409107,6.73024108 0.416409107,7.54564394 L0.416409107,7.47734327 C0.416409107,8.3009931 1.08029495,8.97265069 1.90950546,8.97759368 L13.9233128,9.04920897 C14.7479271,9.05412456 15.4164091,8.38216236 15.4164091,7.5667595 L15.4164091,7.63506017 C15.4164091,6.81141034 14.7525233,6.13975275 13.9233128,6.13480976 L1.90950546,6.06319447 Z" id="Rectangle-3-Copy-38" transform="translate(7.916409, 7.556202) scale(-1, 1) rotate(-180.000000) translate(-7.916409, -7.556202) "></path>
                                </g>
                                <rect id="Rectangle-3-Copy" fill="#EEFF88" transform="translate(159.168569, 18.544575) rotate(-45.000000) translate(-159.168569, -18.544575) " x="154.168569" y="13.5445751" width="10" height="10" rx="0.799999952"></rect>
                            </g>
                            <path d="M61.6036393,92.6383465 C60.5818823,91.1934925 58.8754849,90.246897 56.9429736,90.246897 C53.8157518,90.246897 51.2806377,92.7256753 51.2806377,95.7834032 C51.2806377,98.8411311 53.8157518,101.319909 56.9429736,101.319909 C58.8754849,101.319909 60.5818823,100.373314 61.6036393,98.9284599 C61.3819462,98.9745588 61.151991,98.9988149 60.9162418,98.9988149 C59.1000594,98.9988149 57.6277527,97.559226 57.6277527,95.7834032 C57.6277527,94.0075804 59.1000594,92.5679916 60.9162418,92.5679916 C61.151991,92.5679916 61.3819462,92.5922476 61.6036393,92.6383465 Z" id="Combined-Shape" fill="#FEF6FB" transform="translate(56.442138, 95.783403) rotate(-45.000000) translate(-56.442138, -95.783403) "></path>
                        </g>
                    </g>
                </g>
            </g>
        </g>
    </g>
</svg>