<?xml version="1.0" encoding="UTF-8"?>
<svg width="210px" height="128px" viewBox="0 0 210 128" version="1.1" xmlns="http://www.w3.org/2000/svg" xmlns:xlink="http://www.w3.org/1999/xlink">
    <!-- Generator: Sketch 45 (43475) - http://www.bohemiancoding.com/sketch -->
    <title>Group 56</title>
    <desc>Created with Sketch.</desc>
    <defs>
        <linearGradient x1="121.162138%" y1="13.0807265%" x2="14.2270957%" y2="-71.8079524%" id="linearGradient-1">
            <stop stop-color="#01E0FF" offset="0%"></stop>
            <stop stop-color="#FFBA7D" offset="100%"></stop>
        </linearGradient>
    </defs>
    <g id="V2-Final" stroke="none" stroke-width="1" fill="none" fill-rule="evenodd">
        <g id="V2-Homepage-Copy" transform="translate(-1607.000000, -1277.000000)">
            <g id="Group-56" transform="translate(1607.000000, 1277.000000)">
                <rect id="Rectangle-3-Copy-56" fill="#CD2F81" transform="translate(104.942158, 31.846733) rotate(-45.000000) translate(-104.942158, -31.846733) " x="102.85523" y="29.759805" width="4.17385641" height="4.17385641" rx="0.799999952"></rect>
                <rect id="Rectangle-3-Copy-68" stroke="#14A9F1" transform="translate(104.942158, 31.846733) rotate(-45.000000) translate(-104.942158, -31.846733) " x="94.0543545" y="20.9589293" width="21.7756077" height="21.7756077" rx="0.799999952"></rect>
                <rect id="Rectangle-3-Copy-68" stroke="#F56E7F" transform="translate(89.588650, 16.190022) rotate(-45.000000) translate(-89.588650, -16.190022) " x="89.5886498" y="16.1900218" width="1" height="1" rx="0.5"></rect>
                <rect id="Rectangle-3-Copy-68" stroke="#EEFF88" transform="translate(104.942158, 31.846733) rotate(-45.000000) translate(-104.942158, -31.846733) " x="98.8695422" y="25.774117" width="12.1452324" height="12.1452324" rx="0.799999952"></rect>
                <rect id="Rectangle-3" fill="#FFFFFF" transform="translate(131.507223, 31.938318) rotate(-315.000000) translate(-131.507223, -31.938318) " x="130.291132" y="30.7222282" width="2.43218052" height="2.43218052"></rect>
                <rect id="Rectangle-3" fill="#FFFFFF" transform="translate(78.381912, 31.938318) rotate(-315.000000) translate(-78.381912, -31.938318) " x="77.1658214" y="30.7222282" width="2.43218052" height="2.43218052"></rect>
                <path d="M104.574576,0.638153562 C104.574576,0.319266118 104.84219,0.0607567671 105.151495,0.0607567671 L105.151495,0.0607567671 C105.470118,0.0607567671 105.728413,0.312795002 105.728413,0.638153562 L105.728413,9.67939564 C105.728413,9.99828308 105.4608,10.2567924 105.151495,10.2567924 L105.151495,10.2567924 C104.832871,10.2567924 104.574576,10.0047542 104.574576,9.67939564 L104.574576,0.638153562 Z" id="Rectangle-Copy-5" fill="#FFFFFF" transform="translate(105.151495, 5.158775) rotate(-540.000000) translate(-105.151495, -5.158775) "></path>
                <path d="M104.574576,53.7603551 C104.574576,53.4414676 104.842319,53.1829583 105.151773,53.1829583 L105.151773,53.1829583 C105.47055,53.1829583 105.72897,53.4349965 105.72897,53.7603551 L105.72897,62.8015971 C105.72897,63.1204846 105.461228,63.3789939 105.151773,63.3789939 L105.151773,63.3789939 C104.832996,63.3789939 104.574576,63.1269557 104.574576,62.8015971 L104.574576,53.7603551 Z" id="Rectangle-Copy-5" fill="#FFFFFF" transform="translate(105.151773, 58.280976) rotate(-540.000000) translate(-105.151773, -58.280976) "></path>
                <path d="M82.6397966,-0.362220699 C82.6397966,-0.523373852 82.7722785,-0.654014295 82.9253998,-0.654014295 L82.9253998,-0.654014295 C83.0831341,-0.654014295 83.211003,-0.522202251 83.211003,-0.362220699 L83.211003,19.6956116 C83.211003,19.8567648 83.0785211,19.9874052 82.9253998,19.9874052 L82.9253998,19.9874052 C82.7676655,19.9874052 82.6397966,19.8555932 82.6397966,19.6956116 L82.6397966,-0.362220699 Z" id="Rectangle-Copy-5" fill="#EEFF88" transform="translate(83.139797, 9.666695) rotate(-585.000000) translate(-83.139797, -9.666695) "></path>
                <path d="M125.857521,42.8555037 C125.857521,42.6943506 125.990003,42.5637101 126.143124,42.5637101 L126.143124,42.5637101 C126.300859,42.5637101 126.428727,42.6955222 126.428727,42.8555037 L126.428727,62.9133361 C126.428727,63.0744892 126.296246,63.2051297 126.143124,63.2051297 L126.143124,63.2051297 C125.98539,63.2051297 125.857521,63.0733176 125.857521,62.9133361 L125.857521,42.8555037 Z" id="Rectangle-Copy-5" fill="#EEFF88" transform="translate(126.357521, 52.884420) rotate(-585.000000) translate(-126.357521, -52.884420) "></path>
                <path d="M125.771168,-0.650476862 C125.771168,-0.811630015 125.90365,-0.942270457 126.056772,-0.942270457 L126.056772,-0.942270457 C126.214506,-0.942270457 126.342375,-0.816210616 126.342375,-0.662568407 L126.342375,1.67133952 L126.342375,19.4159752 C126.342375,19.5723678 126.209893,19.699149 126.056772,19.699149 L126.056772,19.699149 C125.899037,19.699149 125.771168,19.567337 125.771168,19.4073555 L125.771168,-0.650476862 Z" id="Rectangle-Copy-5" fill="#EEFF88" transform="translate(126.271168, 9.378439) rotate(-855.000000) translate(-126.271168, -9.378439) "></path>
                <path d="M82.553444,42.5672476 C82.553444,42.4060944 82.685926,42.275454 82.8390472,42.275454 L82.8390472,42.275454 C82.9967815,42.275454 83.1246505,42.407266 83.1246505,42.5672476 L83.1246505,62.6250799 C83.1246505,62.786233 82.9921685,62.9168735 82.8390472,62.9168735 L82.8390472,62.9168735 C82.6813129,62.9168735 82.553444,62.7850614 82.553444,62.6250799 L82.553444,42.5672476 Z" id="Rectangle-Copy-5" fill="#EEFF88" transform="translate(83.053444, 52.596164) rotate(-855.000000) translate(-83.053444, -52.596164) "></path>
                <polyline id="Rectangle-4-Copy" fill="#FEF6FB" points="17.5818992 28.7699087 20.7158082 31.8486675 17.5818992 34.9274263 14.4479902 31.8486675"></polyline>
                <path d="M29.9530781,29.2848104 C29.9530781,28.7940792 30.3474798,28.3962629 30.8416408,28.3962629 L30.8416408,28.3962629 C31.3323804,28.3962629 31.7302034,28.787279 31.7302034,29.2848104 L31.7302034,34.4125246 C31.7302034,34.9032558 31.3358017,35.3010721 30.8416408,35.3010721 L30.8416408,35.3010721 C30.3509011,35.3010721 29.9530781,34.910056 29.9530781,34.4125246 L29.9530781,29.2848104 Z" id="Rectangle-Copy-5" fill="#CD2F81" transform="translate(30.841641, 31.848668) rotate(-630.000000) translate(-30.841641, -31.848668) "></path>
                <path d="M2.82842518,29.2848104 C2.82842518,28.7940792 3.22282689,28.3962629 3.71698785,28.3962629 L3.71698785,28.3962629 C4.20772746,28.3962629 4.60555051,28.787279 4.60555051,29.2848104 L4.60555051,34.4125246 C4.60555051,34.9032558 4.2111488,35.3010721 3.71698785,35.3010721 L3.71698785,35.3010721 C3.22624824,35.3010721 2.82842518,34.910056 2.82842518,34.4125246 L2.82842518,29.2848104 Z" id="Rectangle-Copy-5" fill="#38A8F9" transform="translate(3.716988, 31.848668) rotate(-630.000000) translate(-3.716988, -31.848668) "></path>
                <path d="M16.6933365,42.9442584 C16.6933365,42.4535271 17.0877383,42.0557109 17.5818992,42.0557109 L17.5818992,42.0557109 C18.0726388,42.0557109 18.4704619,42.446727 18.4704619,42.9442584 L18.4704619,48.0719726 C18.4704619,48.5627038 18.0760602,48.9605201 17.5818992,48.9605201 L17.5818992,48.9605201 C17.0911596,48.9605201 16.6933365,48.5695039 16.6933365,48.0719726 L16.6933365,42.9442584 Z" id="Rectangle-Copy-5" fill="#F56E7F" transform="translate(17.581899, 45.508115) rotate(-540.000000) translate(-17.581899, -45.508115) "></path>
                <path d="M16.6933365,15.8196055 C16.6933365,15.3288742 17.0877383,14.931058 17.5818992,14.931058 L17.5818992,14.931058 C18.0726388,14.931058 18.4704619,15.3220741 18.4704619,15.8196055 L18.4704619,20.9473197 C18.4704619,21.4380509 18.0760602,21.8358672 17.5818992,21.8358672 L17.5818992,21.8358672 C17.0911596,21.8358672 16.6933365,21.444851 16.6933365,20.9473197 L16.6933365,15.8196055 Z" id="Rectangle-Copy-5" fill="#F48972" transform="translate(17.581899, 18.383463) rotate(-540.000000) translate(-17.581899, -18.383463) "></path>
                <polyline id="Rectangle-4-Copy" fill="#FEF6FB" points="192.581899 28.7699087 195.715808 31.8486675 192.581899 34.9274263 189.44799 31.8486675"></polyline>
                <path d="M204.953078,29.2848104 C204.953078,28.7940792 205.34748,28.3962629 205.841641,28.3962629 L205.841641,28.3962629 C206.33238,28.3962629 206.730203,28.787279 206.730203,29.2848104 L206.730203,34.4125246 C206.730203,34.9032558 206.335802,35.3010721 205.841641,35.3010721 L205.841641,35.3010721 C205.350901,35.3010721 204.953078,34.910056 204.953078,34.4125246 L204.953078,29.2848104 Z" id="Rectangle-Copy-5" fill="#CD2F81" transform="translate(205.841641, 31.848668) rotate(-630.000000) translate(-205.841641, -31.848668) "></path>
                <path d="M177.828425,29.2848104 C177.828425,28.7940792 178.222827,28.3962629 178.716988,28.3962629 L178.716988,28.3962629 C179.207727,28.3962629 179.605551,28.787279 179.605551,29.2848104 L179.605551,34.4125246 C179.605551,34.9032558 179.211149,35.3010721 178.716988,35.3010721 L178.716988,35.3010721 C178.226248,35.3010721 177.828425,34.910056 177.828425,34.4125246 L177.828425,29.2848104 Z" id="Rectangle-Copy-5" fill="#38A8F9" transform="translate(178.716988, 31.848668) rotate(-630.000000) translate(-178.716988, -31.848668) "></path>
                <path d="M191.693337,42.9442584 C191.693337,42.4535271 192.087738,42.0557109 192.581899,42.0557109 L192.581899,42.0557109 C193.072639,42.0557109 193.470462,42.446727 193.470462,42.9442584 L193.470462,48.0719726 C193.470462,48.5627038 193.07606,48.9605201 192.581899,48.9605201 L192.581899,48.9605201 C192.09116,48.9605201 191.693337,48.5695039 191.693337,48.0719726 L191.693337,42.9442584 Z" id="Rectangle-Copy-5" fill="#F56E7F" transform="translate(192.581899, 45.508115) rotate(-540.000000) translate(-192.581899, -45.508115) "></path>
                <path d="M191.693337,15.8196055 C191.693337,15.3288742 192.087738,14.931058 192.581899,14.931058 L192.581899,14.931058 C193.072639,14.931058 193.470462,15.3220741 193.470462,15.8196055 L193.470462,20.9473197 C193.470462,21.4380509 193.07606,21.8358672 192.581899,21.8358672 L192.581899,21.8358672 C192.09116,21.8358672 191.693337,21.444851 191.693337,20.9473197 L191.693337,15.8196055 Z" id="Rectangle-Copy-5" fill="#F48972" transform="translate(192.581899, 18.383463) rotate(-540.000000) translate(-192.581899, -18.383463) "></path>
                <rect id="Rectangle-3" fill="#EEFF88" transform="translate(153.666605, 32.007942) rotate(-315.000000) translate(-153.666605, -32.007942) " x="151.398765" y="29.7401022" width="4.53567871" height="4.53567871"></rect>
                <rect id="Rectangle-3" fill="#EEFF88" transform="translate(56.782413, 32.007942) rotate(-315.000000) translate(-56.782413, -32.007942) " x="54.5145737" y="29.7401022" width="4.53567871" height="4.53567871"></rect>
                <rect id="Rectangle-3-Copy-68" stroke="#6BCFFF" transform="translate(153.666605, 32.007942) rotate(-315.000000) translate(-153.666605, -32.007942) " x="147.705732" y="26.0470689" width="11.9217453" height="11.9217453" rx="0.799999952"></rect>
                <rect id="Rectangle-3-Copy-68" stroke="#6BCFFF" transform="translate(56.782413, 32.007942) rotate(-315.000000) translate(-56.782413, -32.007942) " x="50.5152546" y="25.7407832" width="12.5343167" height="12.5343167" rx="0.799999952"></rect>
                <path d="M1.50793323,95.9978307 C1.22740945,95.9977904 1,96.2237964 1,96.5078838 L1,96.4622151 C1,96.74395 1.22341128,96.9723734 1.50793323,96.9724143 L208.492067,97.0021693 C208.772591,97.0022096 209,96.7762036 209,96.4921162 L209,96.5377849 C209,96.25605 208.776589,96.0276266 208.492067,96.0275857 L1.50793323,95.9978307 Z" id="Rectangle-3-Copy-38" fill="#F48972" transform="translate(105.000000, 96.500000) scale(-1, 1) rotate(-180.000000) translate(-105.000000, -96.500000) "></path>
                <path d="M1.50793323,101.997831 C1.22740945,101.99779 1,102.223796 1,102.507884 L1,102.462215 C1,102.74395 1.22341128,102.972373 1.50793323,102.972414 L208.492067,103.002169 C208.772591,103.00221 209,102.776204 209,102.492116 L209,102.537785 C209,102.25605 208.776589,102.027627 208.492067,102.027586 L1.50793323,101.997831 Z" id="Rectangle-3-Copy-38" fill="#F48972" transform="translate(105.000000, 102.500000) scale(-1, 1) rotate(-180.000000) translate(-105.000000, -102.500000) "></path>
                <path d="M1.50793323,107.997831 C1.22740945,107.99779 1,108.223796 1,108.507884 L1,108.462215 C1,108.74395 1.22341128,108.972373 1.50793323,108.972414 L208.492067,109.002169 C208.772591,109.00221 209,108.776204 209,108.492116 L209,108.537785 C209,108.25605 208.776589,108.027627 208.492067,108.027586 L1.50793323,107.997831 Z" id="Rectangle-3-Copy-38" fill="#F48972" transform="translate(105.000000, 108.500000) scale(-1, 1) rotate(-180.000000) translate(-105.000000, -108.500000) "></path>
                <polygon id="Triangle-2-Copy-15" fill="url(#linearGradient-1)" points="203.149787 83.7416981 208.478538 91.7133777 197.821037 91.7133777"></polygon>
                <polygon id="Triangle-2-Copy-15" fill="url(#linearGradient-1)" points="183.549787 83.7416981 188.878538 91.7133777 178.221037 91.7133777"></polygon>
                <polygon id="Triangle-2-Copy-15" fill="url(#linearGradient-1)" points="163.949787 83.7416981 169.278538 91.7133777 158.621037 91.7133777"></polygon>
                <polygon id="Triangle-2-Copy-15" fill="url(#linearGradient-1)" points="144.349787 83.7416981 149.678538 91.7133777 139.021037 91.7133777"></polygon>
                <polygon id="Triangle-2-Copy-15" fill="url(#linearGradient-1)" points="124.749787 83.7416981 130.078538 91.7133777 119.421037 91.7133777"></polygon>
                <polygon id="Triangle-2-Copy-15" fill="url(#linearGradient-1)" points="105.149787 83.7416981 110.478538 91.7133777 99.821037 91.7133777"></polygon>
                <polygon id="Triangle-2-Copy-15" fill="url(#linearGradient-1)" points="85.5497874 83.7416981 90.8785378 91.7133777 80.221037 91.7133777"></polygon>
                <polygon id="Triangle-2-Copy-15" fill="url(#linearGradient-1)" points="65.9497874 83.7416981 71.2785378 91.7133777 60.621037 91.7133777"></polygon>
                <polygon id="Triangle-2-Copy-15" fill="url(#linearGradient-1)" points="46.3497874 83.7416981 51.6785378 91.7133777 41.021037 91.7133777"></polygon>
                <polygon id="Triangle-2-Copy-15" fill="url(#linearGradient-1)" points="26.7497874 83.7416981 32.0785378 91.7133777 21.421037 91.7133777"></polygon>
                <polygon id="Triangle-2-Copy-15" fill="url(#linearGradient-1)" points="7.14978743 83.7416981 12.4785378 91.7133777 1.82103704 91.7133777"></polygon>
                <g id="Group-89" transform="translate(82.000000, 80.000000)" fill="#FFFFFF">
                    <circle id="Oval-Copy" cx="23.1559586" cy="12.2260537" r="11.8568196"></circle>
                    <path d="M0.982426916,47.0276053 C2.30647487,31.8595583 7.40730814,27.2190634 14.2697643,25.8064496 C16.8042069,27.5255025 19.8627976,28.5298178 23.1559586,28.5298178 C26.4976978,28.5298178 29.5978951,27.4956542 32.1539681,25.7299096 C38.9855733,27.0389193 44.0506146,31.5415848 45.3441857,47.027605 L0.982426401,47.0276112 Z" id="Combined-Shape"></path>
                </g>
            </g>
        </g>
    </g>
</svg>