<?xml version="1.0" encoding="UTF-8"?>
<svg width="208px" height="124px" viewBox="0 0 208 124" version="1.1" xmlns="http://www.w3.org/2000/svg" xmlns:xlink="http://www.w3.org/1999/xlink">
    <!-- Generator: Sketch 45 (43475) - http://www.bohemiancoding.com/sketch -->
    <title>Group 79</title>
    <desc>Created with Sketch.</desc>
    <defs></defs>
    <g id="V2-Final" stroke="none" stroke-width="1" fill="none" fill-rule="evenodd">
        <g id="V2-Homepage-Copy" transform="translate(-1364.000000, -1281.000000)">
            <g id="Group-79" transform="translate(1363.000000, 1278.000000)">
                <g id="Group-32-Copy-2" transform="translate(84.613917, 79.026780)" fill="#FFFFFF">
                    <g id="Group-33" transform="translate(0.392309, 0.097214)">
                        <circle id="Oval-Copy" cx="22.2740277" cy="12.1020593" r="11.8568196"></circle>
                        <path d="M0.100496001,46.9036108 C1.42454396,31.7355639 6.52537722,27.0950689 13.3878334,25.6824551 C15.922276,27.401508 18.9808666,28.4058233 22.2740277,28.4058233 C25.6157669,28.4058233 28.7159642,27.3716598 31.2720372,25.6059152 C38.1036424,26.9149249 43.1686837,31.4175903 44.4622548,46.9036106 L0.100495485,46.9036167 Z" id="Combined-Shape"></path>
                    </g>
                </g>
                <g id="Group-41" transform="translate(27.958984, 80.865234) rotate(-270.000000) translate(-27.958984, -80.865234) translate(11.458984, 64.365234)">
                    <g id="Group-68" transform="translate(0.000000, -0.000000)">
                        <g id="Group-77">
                            <rect id="Rectangle-3-Copy-56" fill="#CD2F81" transform="translate(16.473668, 16.358027) rotate(-45.000000) translate(-16.473668, -16.358027) " x="12.1838235" y="12.0681825" width="8.57968938" height="8.57968938" rx="0.799999952"></rect>
                            <rect id="Rectangle-3-Copy-68" stroke="#EEFF88" transform="translate(16.436101, 16.395594) rotate(-45.000000) translate(-16.436101, -16.395594) " x="5.39014359" y="5.34963621" width="22.0919156" height="22.0919156" rx="0.799999952"></rect>
                        </g>
                    </g>
                </g>
                <g id="Group-82" transform="translate(61.000000, 3.000000)">
                    <rect id="Rectangle-3-Copy-68" stroke="#CD2F81" transform="translate(22.413366, 23.244503) rotate(-45.000000) translate(-22.413366, -23.244503) " x="7.11348485" y="7.94462152" width="30.5997623" height="30.5997623" rx="0.799999952"></rect>
                    <rect id="Rectangle-3-Copy-68" stroke="#14A9F1" transform="translate(22.413366, 23.244503) rotate(-45.000000) translate(-22.413366, -23.244503) " x="15.7864027" y="16.6175393" width="13.2539267" height="13.2539267" rx="0.799999952"></rect>
                </g>
                <rect id="Rectangle-3-Copy-57" fill="#FFFFFF" transform="translate(188.946104, 52.176664) rotate(-315.000000) translate(-188.946104, -52.176664) " x="186.644503" y="41.4439104" width="4.60320107" height="21.4655077" rx="0.799999952"></rect>
                <rect id="Rectangle-3-Copy-65" stroke="#14A9F1" transform="translate(188.921503, 52.575311) rotate(-315.000000) translate(-188.921503, -52.575311) " x="179.434011" y="34.6204459" width="18.9749835" height="35.909731" rx="0.799999952"></rect>
                <circle id="Oval-Copy" stroke="#EEFF88" transform="translate(156.592354, 47.891865) rotate(-495.000000) translate(-156.592354, -47.891865) " cx="156.592354" cy="47.8918654" r="6.96727297"></circle>
                <circle id="Oval-Copy" fill="#CD2F81" transform="translate(196.696861, 8.787358) rotate(-675.000000) translate(-196.696861, -8.787358) " cx="196.696861" cy="8.78735815" r="3.97355406"></circle>
                <g id="Group-80" transform="translate(112.532904, 27.593703) rotate(-360.000000) translate(-112.532904, -27.593703) translate(79.532904, 14.593703)">
                    <g id="Group-81" transform="translate(0.699744, 0.699744)">
                        <rect id="Rectangle-3" fill="#14A9F1" transform="translate(52.528741, 12.523758) rotate(-585.000000) translate(-52.528741, -12.523758) " x="50.4134526" y="10.4084702" width="4.23057592" height="4.23057592"></rect>
                        <rect id="Rectangle-3" fill="#FFFFFF" transform="translate(3.180718, 10.951056) rotate(-585.000000) translate(-3.180718, -10.951056) " x="1.06542994" y="8.83576757" width="4.23057592" height="4.23057592"></rect>
                        <rect id="Rectangle-3" stroke="#EEFF88" transform="translate(52.528741, 12.523758) rotate(-315.000000) translate(-52.528741, -12.523758) " x="44.2115075" y="4.2065251" width="16.6344661" height="16.6344661" rx="0.799999952"></rect>
                    </g>
                </g>
                <circle id="Oval-Copy" fill="#F48972" transform="translate(151.090829, 9.463328) rotate(-315.000000) translate(-151.090829, -9.463328) " cx="151.090829" cy="9.46332801" r="6.10755994"></circle>
                <circle id="Oval-Copy" fill="#FEF6FB" transform="translate(111.317030, 49.237126) rotate(-315.000000) translate(-111.317030, -49.237126) " cx="111.31703" cy="49.2371265" r="2.32127335"></circle>
                <g id="Group-86" transform="translate(94.461130, 64.507876) rotate(-45.000000) translate(-94.461130, -64.507876) translate(91.461130, 61.507876)" fill="#FEF6FB">
                    <circle id="Oval-Copy-37" transform="translate(3.234070, 2.882039) rotate(-270.000000) translate(-3.234070, -2.882039) " cx="3.23407004" cy="2.88203929" r="2.32127335"></circle>
                </g>
                <circle id="Oval-Copy" fill="#FEF6FB" transform="translate(175.317030, 29.237126) rotate(-315.000000) translate(-175.317030, -29.237126) " cx="175.31703" cy="29.2371265" r="4.19519977"></circle>
                <circle id="Oval-Copy" fill="#CD2F81" transform="translate(78.029298, 78.235822) rotate(-315.000000) translate(-78.029298, -78.235822) " cx="78.0292982" cy="78.235822" r="4.69999981"></circle>
                <circle id="Oval-Copy" stroke="#CD2F81" transform="translate(111.317030, 49.237126) rotate(-495.000000) translate(-111.317030, -49.237126) " cx="111.31703" cy="49.2371265" r="9.09315763"></circle>
                <g id="Group-41" transform="translate(133.261719, 68.743630) rotate(-270.000000) translate(-133.261719, -68.743630) translate(119.761719, 55.243630)">
                    <g id="Group-76" transform="translate(0.000000, 0.000000)">
                        <rect id="Rectangle-3-Copy-66" fill="#F48972" transform="translate(13.755731, 13.719206) rotate(-45.000000) translate(-13.755731, -13.719206) " x="10.8381727" y="10.8016474" width="5.83511671" height="5.83511671" rx="0.799999952"></rect>
                        <rect id="Rectangle-3-Copy-68" stroke="#14A9F1" transform="translate(13.755731, 13.719206) rotate(-45.000000) translate(-13.755731, -13.719206) " x="5.07279019" y="5.03626491" width="17.3658816" height="17.3658816" rx="0.799999952"></rect>
                    </g>
                </g>
                <g id="Group-41" transform="translate(24.419922, 26.073237) rotate(-270.000000) translate(-24.419922, -26.073237) translate(0.419922, 2.573237)">
                    <g id="Group-76" transform="translate(0.000000, 0.000000)">
                        <rect id="Rectangle-3-Copy-66" stroke="#F53F89" transform="translate(23.860027, 23.534121) rotate(-45.000000) translate(-23.860027, -23.534121) " x="17.6410555" y="17.3151496" width="12.4379421" height="12.4379421" rx="0.799999952"></rect>
                        <rect id="Rectangle-3-Copy-68" stroke="#FFFFFF" transform="translate(23.860027, 23.534121) rotate(-45.000000) translate(-23.860027, -23.534121) " x="7.8958304" y="7.56992458" width="31.9283922" height="31.9283922" rx="0.799999952"></rect>
                    </g>
                </g>
                <g id="Group-83" transform="translate(34.144531, 34.144531)">
                    <circle id="Oval-Copy" stroke="#FFFFFF" transform="translate(20.516107, 20.551005) rotate(-270.000000) translate(-20.516107, -20.551005) " cx="20.5161072" cy="20.551005" r="6.44833211"></circle>
                    <g id="Group-41" transform="translate(20.344553, 20.661921) rotate(-270.000000) translate(-20.344553, -20.661921) translate(0.344553, 0.661921)" stroke="#14A9F1">
                        <g id="Group-76" transform="translate(-0.000000, 0.000000)">
                            <rect id="Rectangle-3-Copy-68" transform="translate(19.889084, 19.828446) rotate(-45.000000) translate(-19.889084, -19.828446) " x="6.70016923" y="6.63953135" width="26.3778286" height="26.3778286" rx="0.799999952"></rect>
                        </g>
                    </g>
                </g>
            </g>
        </g>
    </g>
</svg>