<?xml version="1.0" encoding="UTF-8"?>
<svg width="1446px" height="334px" viewBox="0 0 1446 334" version="1.1" xmlns="http://www.w3.org/2000/svg" xmlns:xlink="http://www.w3.org/1999/xlink">
    <title>img_hero_01</title>
    <defs>
        <rect id="path-1" x="0" y="0.875" width="1934" height="390.75"></rect>
        <linearGradient x1="121.162138%" y1="13.0807265%" x2="14.2270957%" y2="-71.8079524%" id="linearGradient-3">
            <stop stop-color="#35016B" offset="0%"></stop>
            <stop stop-color="#320D73" offset="1.83079508%"></stop>
            <stop stop-color="#01E0FF" offset="33.1304229%"></stop>
            <stop stop-color="#FFBA7D" offset="100%"></stop>
        </linearGradient>
        <linearGradient x1="19.3551198%" y1="60.7357552%" x2="14.2270957%" y2="-71.8079524%" id="linearGradient-4">
            <stop stop-color="#694095" stop-opacity="0" offset="0%"></stop>
            <stop stop-color="#FFBA7D" offset="100%"></stop>
        </linearGradient>
        <linearGradient x1="50%" y1="98.5163298%" x2="50%" y2="-8.62510578%" id="linearGradient-5">
            <stop stop-color="#F8697B" offset="0%"></stop>
            <stop stop-color="#E44F7E" offset="42.8875732%"></stop>
            <stop stop-color="#E0487E" stop-opacity="0.788994608" offset="43.6160709%"></stop>
            <stop stop-color="#CD2F81" stop-opacity="0" offset="100%"></stop>
        </linearGradient>
        <linearGradient x1="50%" y1="98.5163298%" x2="50%" y2="-36.3454861%" id="linearGradient-6">
            <stop stop-color="#F8697B" offset="0%"></stop>
            <stop stop-color="#CD2F81" offset="100%"></stop>
        </linearGradient>
        <linearGradient x1="19.3551198%" y1="60.7357552%" x2="14.2270957%" y2="-71.8079524%" id="linearGradient-7">
            <stop stop-color="#35016B" stop-opacity="0.2" offset="0%"></stop>
            <stop stop-color="#F48972" offset="37.2816578%"></stop>
            <stop stop-color="#FFBA7D" offset="100%"></stop>
        </linearGradient>
        <linearGradient x1="50%" y1="1.48367019%" x2="50%" y2="136.345486%" id="linearGradient-8">
            <stop stop-color="#F8697B" offset="0%"></stop>
            <stop stop-color="#CD2F81" offset="100%"></stop>
        </linearGradient>
        <linearGradient x1="50%" y1="1.48367019%" x2="50%" y2="136.345486%" id="linearGradient-9">
            <stop stop-color="#F48972" offset="0%"></stop>
            <stop stop-color="#CD2F81" offset="100%"></stop>
        </linearGradient>
    </defs>
    <g id="V2-Final" stroke="none" stroke-width="1" fill="none" fill-rule="evenodd">
        <g id="V2-Homepage-Copy" transform="translate(-257.000000, -58.000000)">
            <g id="img_hero_01">
                <mask id="mask-2" fill="white">
                    <use xlink:href="#path-1"></use>
                </mask>
                <g id="Mask" transform="translate(967.000000, 196.250000) scale(1, -1) translate(-967.000000, -196.250000) "></g>
                <g id="Group-2" mask="url(#mask-2)">
                    <g transform="translate(234.000000, 58.000000)">
                        <polygon id="Triangle-2-Copy-13" stroke="none" fill="url(#linearGradient-3)" fill-rule="evenodd" points="725.5 143 894 411 557 411"></polygon>
                        <rect id="Rectangle-3-Copy-28" stroke="#FFFFFF" stroke-width="2" fill="none" x="24.3359375" y="276.81" width="254" height="160" rx="15"></rect>
                        <rect id="Rectangle-3-Copy-25" stroke="none" fill="#442268" fill-rule="evenodd" x="812.374751" y="242.044366" width="319.250498" height="44" rx="22"></rect>
                        <rect id="Rectangle-3-Copy-27" stroke="none" fill="#442268" fill-rule="evenodd" x="76.8203125" y="296.739583" width="274.142578" height="63" rx="15"></rect>
                        <rect id="Rectangle-3-Copy-28" stroke="#CD2F81" stroke-width="3" fill="none" x="254.373047" y="204" width="102" height="274" rx="10"></rect>
                        <polyline id="Rectangle-4-Copy-3" stroke="none" fill="#CD2F81" fill-rule="evenodd" points="306.950219 249.212656 322.827278 264.810312 306.950219 280.407968 291.07316 264.810312"></polyline>
                        <path d="M425.404993,165.937127 C423.913478,163.827994 421.422556,162.446196 418.601562,162.446196 C414.036584,162.446196 410.335938,166.064606 410.335938,170.52814 C410.335938,174.991675 414.036584,178.610084 418.601562,178.610084 C421.422556,178.610084 423.913478,177.228287 425.404993,175.119153 C425.081376,175.186447 424.745697,175.221854 424.401561,175.221854 C421.750379,175.221854 419.601172,173.120407 419.601172,170.52814 C419.601172,167.935874 421.750379,165.834426 424.401561,165.834426 C424.745697,165.834426 425.081376,165.869834 425.404993,165.937127 Z" id="Combined-Shape" stroke="none" fill="#FEF6FB" fill-rule="evenodd"></path>
                        <g id="Group-29" stroke="none" stroke-width="1" fill="none" fill-rule="evenodd" transform="translate(1080.000000, 71.799998)">
                            <rect id="Rectangle-3" fill="#CD2F81" transform="translate(6.561969, 26.596163) rotate(-45.000000) translate(-6.561969, -26.596163) " x="2" y="22.0341937" width="9.12393832" height="9.12393832" rx="0.799999952"></rect>
                            <rect id="Rectangle-3" fill="#CD2F81" transform="translate(96.561969, 26.596163) rotate(-45.000000) translate(-96.561969, -26.596163) " x="92" y="22.0341937" width="9.12393832" height="9.12393832" rx="0.799999952"></rect>
                            <g id="Group-28" transform="translate(25.561969, 0.299997)">
                                <rect id="Rectangle-3" stroke="#EEFF88" transform="translate(25.945436, 26.296166) rotate(-45.000000) translate(-25.945436, -26.296166) " x="8.18793991" y="8.5386696" width="35.514993" height="35.514993" rx="0.799999952"></rect>
                                <rect id="Rectangle-3" fill="#F48972" transform="translate(25.945436, 26.296166) rotate(-45.000000) translate(-25.945436, -26.296166) " x="19.5141918" y="19.8649215" width="12.8624892" height="12.8624892" rx="0.799999952"></rect>
                            </g>
                        </g>
                        <g id="Group-11" stroke="none" stroke-width="1" fill="none" fill-rule="evenodd" transform="translate(861.000000, 137.548627)">
                            <path d="M70.1147311,-4.98016758 C70.1147311,-5.8271985 70.7923297,-6.51385274 71.6413188,-6.51385274 L71.6413188,-6.51385274 C72.48443,-6.51385274 73.1679066,-5.83689726 73.1679066,-4.98016758 L73.1679066,189.609917 C73.1679066,190.456948 72.490308,191.143602 71.6413188,191.143602 L71.6413188,191.143602 C70.7982077,191.143602 70.1147311,190.466647 70.1147311,189.609917 L70.1147311,-4.98016758 Z" id="Rectangle-Copy-4" fill="url(#linearGradient-4)" transform="translate(71.641319, 92.314875) rotate(-315.000000) translate(-71.641319, -92.314875) "></path>
                            <path d="M146.245914,11.5452381 C146.245914,10.7021414 146.923513,10.0186764 147.772502,10.0186764 L147.772502,10.0186764 C148.615613,10.0186764 149.29909,10.7077431 149.29909,11.5452381 L149.29909,20.3548651 C149.29909,21.1979619 148.621491,21.8814269 147.772502,21.8814269 L147.772502,21.8814269 C146.929391,21.8814269 146.245914,21.1923602 146.245914,20.3548651 L146.245914,11.5452381 Z" id="Rectangle-Copy-5" fill="#F48C72" transform="translate(147.772502, 15.950052) rotate(-315.000000) translate(-147.772502, -15.950052) "></path>
                            <path d="M156.92239,0.868762693 C156.92239,0.0256659312 157.599988,-0.657799035 158.448978,-0.657799035 L158.448978,-0.657799035 C159.292089,-0.657799035 159.975565,0.0312676761 159.975565,0.868762693 L159.975565,9.67838971 C159.975565,10.5214865 159.297967,11.2049514 158.448978,11.2049514 L158.448978,11.2049514 C157.605866,11.2049514 156.92239,10.5158847 156.92239,9.67838971 L156.92239,0.868762693 Z" id="Rectangle-Copy-6" fill="#FFFFFF" transform="translate(158.448978, 5.273576) rotate(-315.000000) translate(-158.448978, -5.273576) "></path>
                            <path d="M156.92239,0.868762693 C156.92239,0.0256659312 157.599988,-0.657799035 158.448978,-0.657799035 L158.448978,-0.657799035 C159.292089,-0.657799035 159.975565,0.0312676761 159.975565,0.868762693 L159.975565,9.67838971 C159.975565,10.5214865 159.297967,11.2049514 158.448978,11.2049514 L158.448978,11.2049514 C157.605866,11.2049514 156.92239,10.5158847 156.92239,9.67838971 L156.92239,0.868762693 Z" id="Rectangle-Copy-6" fill="#FFFFFF" transform="translate(158.448978, 5.273576) rotate(-315.000000) translate(-158.448978, -5.273576) "></path>
                        </g>
                        <g id="Group-11" stroke="none" stroke-width="1" fill="none" fill-rule="evenodd" transform="translate(0.891602, 147.000000)">
                            <path d="M91.1491554,-6.47421821 C91.1491554,-7.57535847 92.0300337,-8.46800903 93.1337196,-8.46800903 L93.1337196,-8.46800903 C94.2297642,-8.46800903 95.1182838,-7.58796686 95.1182838,-6.47421821 L95.1182838,246.492906 C95.1182838,247.594046 94.2374056,248.486697 93.1337196,248.486697 L93.1337196,248.486697 C92.0376751,248.486697 91.1491554,247.606655 91.1491554,246.492906 L91.1491554,-6.47421821 Z" id="Rectangle-Copy-4" fill="url(#linearGradient-4)" transform="translate(93.133720, 120.009344) rotate(-315.000000) translate(-93.133720, -120.009344) "></path>
                            <path d="M190.119699,15.0088104 C190.119699,13.9127845 191.000577,13.02428 192.104263,13.02428 L192.104263,13.02428 C193.200308,13.02428 194.088828,13.9200668 194.088828,15.0088104 L194.088828,26.4613261 C194.088828,27.557352 193.207949,28.4458565 192.104263,28.4458565 L192.104263,28.4458565 C191.008219,28.4458565 190.119699,27.5500697 190.119699,26.4613261 L190.119699,15.0088104 Z" id="Rectangle-Copy-5" fill="#48A3F5" transform="translate(192.104263, 20.735068) rotate(-315.000000) translate(-192.104263, -20.735068) "></path>
                            <path d="M203.999118,1.12939156 C203.999118,0.0333657124 204.879996,-0.855138792 205.983682,-0.855138792 L205.983682,-0.855138792 C207.079727,-0.855138792 207.968246,0.0406479812 207.968246,1.12939156 L207.968246,12.5819073 C207.968246,13.6779332 207.087368,14.5664377 205.983682,14.5664377 L205.983682,14.5664377 C204.887638,14.5664377 203.999118,13.6706509 203.999118,12.5819073 L203.999118,1.12939156 Z" id="Rectangle-Copy-6" fill="#FFFFFF" transform="translate(205.983682, 6.855649) rotate(-315.000000) translate(-205.983682, -6.855649) "></path>
                            <path d="M203.999118,1.12939156 C203.999118,0.0333657124 204.879996,-0.855138792 205.983682,-0.855138792 L205.983682,-0.855138792 C207.079727,-0.855138792 207.968246,0.0406479812 207.968246,1.12939156 L207.968246,12.5819073 C207.968246,13.6779332 207.087368,14.5664377 205.983682,14.5664377 L205.983682,14.5664377 C204.887638,14.5664377 203.999118,13.6706509 203.999118,12.5819073 L203.999118,1.12939156 Z" id="Rectangle-Copy-6" fill="#FFFFFF" transform="translate(205.983682, 6.855649) rotate(-315.000000) translate(-205.983682, -6.855649) "></path>
                        </g>
                        <g id="Group-22" stroke="none" stroke-width="1" fill="none" fill-rule="evenodd" transform="translate(327.359375, 268.030273)">
                            <rect id="Rectangle-2" stroke="#7A4FA9" stroke-width="3.4879999" transform="translate(85.203330, 100.350212) rotate(-315.000000) translate(-85.203330, -100.350212) " x="27.0277022" y="42.1745846" width="116.351255" height="116.351255" rx="0.799999952"></rect>
                            <rect id="Rectangle-2-Copy" stroke="#7A4FA9" stroke-width="3.4879999" transform="translate(85.203330, 84.788941) rotate(-315.000000) translate(-85.203330, -84.788941) " x="27.0277022" y="26.6133138" width="116.351255" height="116.351255" rx="0.799999952"></rect>
                            <rect id="Rectangle-2" stroke="#7A4FA9" stroke-width="3.4879999" transform="translate(85.203330, 116.732115) rotate(-315.000000) translate(-85.203330, -116.732115) " x="27.0277022" y="58.5564874" width="116.351255" height="116.351255" rx="0.799999952"></rect>
                        </g>
                        <ellipse id="Oval-Copy-3" stroke="#00D8D8" stroke-width="2" fill="none" cx="817.332031" cy="88.1024306" rx="10.3320312" ry="10.1024306"></ellipse>
                        <polygon id="Rectangle-3-Copy-19" stroke="none" fill="#442268" fill-rule="evenodd" points="911.311523 133.671143 911.498974 363.325983 930.748974 363.325983 928.851729 269.839471 926.311523 144.671143"></polygon>
                        <path d="M904.784398,355.654841 C910.307925,355.654841 914.804893,351.18725 914.828782,345.646884 L915.706847,142.007957 C915.73068,136.480715 911.2697,132 905.750064,132 L862.749936,132 C857.227124,132 852.756419,136.46759 852.764379,142.007957 L853.056964,345.646884 C853.064905,351.174126 857.546944,355.654841 863.072574,355.654841 L904.784398,355.654841 Z" id="Rectangle-3-Copy-20" stroke="none" fill="#694095" fill-rule="evenodd"></path>
                        <ellipse id="Oval-Copy-2" stroke="none" fill="#5DE1FF" fill-rule="evenodd" cx="1292.26136" cy="73.5" rx="10.7386364" ry="10.5"></ellipse>
                        <rect id="Rectangle-3-Copy-25" stroke="none" fill="#442268" fill-rule="evenodd" x="1100" y="151.5" width="110" height="44" rx="22"></rect>
                        <rect id="Rectangle-3-Copy-24" stroke="#EEFF88" stroke-width="1" fill="none" x="832" y="222.5" width="177.359375" height="30" rx="15"></rect>
                        <rect id="Rectangle-3-Copy-32" stroke="none" fill="#442268" fill-rule="evenodd" x="1273.45" y="232" width="195.013849" height="20" rx="10"></rect>
                        <rect id="Rectangle-3-Copy-28" stroke="none" fill="#694095" fill-rule="evenodd" x="1199.17383" y="303" width="93" height="120" rx="46.5"></rect>
                        <g id="Group-24" stroke="none" stroke-width="1" fill="none" fill-rule="evenodd" transform="translate(638.393189, 256.005772) rotate(-58.000000) translate(-638.393189, -256.005772) translate(526.393189, 249.505772)">
                            <polyline id="Rectangle-4" fill="#FFFFFF" points="61.3739756 0.74886728 67.3021865 6.5727542 61.3739756 12.3966411 55.4457646 6.5727542"></polyline>
                            <path d="M20.8594179,-14.1913232 C20.8594179,-14.7247634 21.2875047,-15.1572021 21.823871,-15.1572021 L21.823871,-15.1572021 C22.3565238,-15.1572021 22.7883242,-14.7282973 22.7883242,-14.1913232 L22.7883242,27.21223 C22.7883242,27.7456702 22.3602374,28.1781089 21.823871,28.1781089 L21.823871,28.1781089 C21.2912182,28.1781089 20.8594179,27.7492041 20.8594179,27.21223 L20.8594179,-14.1913232 Z" id="Rectangle-Copy-5" fill="#FFFFFF" transform="translate(21.823871, 6.510453) rotate(-630.000000) translate(-21.823871, -6.510453) "></path>
                            <path d="M150.260276,-64.5006466 C150.260276,-65.0292958 150.688362,-65.4578507 151.224729,-65.4578507 L151.224729,-65.4578507 C151.757381,-65.4578507 152.189182,-65.0190288 152.189182,-64.5006466 L152.189182,77.5215534 C152.189182,78.0502026 151.761095,78.4787575 151.224729,78.4787575 L151.224729,78.4787575 C150.692076,78.4787575 150.260276,78.0399356 150.260276,77.5215534 L150.260276,-64.5006466 Z" id="Rectangle-Copy-9" fill="#FFFFFF" transform="translate(151.224729, 6.510453) rotate(-630.000000) translate(-151.224729, -6.510453) "></path>
                        </g>
                        <g id="Group" stroke="none" stroke-width="1" fill="none" fill-rule="evenodd" transform="translate(610.000000, 11.000000)">
                            <polyline id="Rectangle-4-Copy" fill="#FEF6FB" points="25.4057787 20.3277342 29.9808221 24.8222664 25.4057787 29.3167987 20.8307353 24.8222664"></polyline>
                            <path d="M43.465869,21.0794145 C43.465869,20.3630195 44.0416372,19.7822666 44.763039,19.7822666 L44.763039,19.7822666 C45.4794462,19.7822666 46.060209,20.3530923 46.060209,21.0794145 L46.060209,28.5651184 C46.060209,29.2815134 45.4844409,29.8622662 44.763039,29.8622662 L44.763039,29.8622662 C44.0466318,29.8622662 43.465869,29.2914405 43.465869,28.5651184 L43.465869,21.0794145 Z" id="Rectangle-Copy-5" fill="#38A8F9" transform="translate(44.763039, 24.822266) rotate(-630.000000) translate(-44.763039, -24.822266) "></path>
                            <path d="M3.86788996,21.0794145 C3.86788996,20.3630195 4.44365809,19.7822666 5.16505995,19.7822666 L5.16505995,19.7822666 C5.88146716,19.7822666 6.46222995,20.3530923 6.46222995,21.0794145 L6.46222995,28.5651184 C6.46222995,29.2815134 5.88646182,29.8622662 5.16505995,29.8622662 L5.16505995,29.8622662 C4.44865275,29.8622662 3.86788996,29.2914405 3.86788996,28.5651184 L3.86788996,21.0794145 Z" id="Rectangle-Copy-5" fill="#38A8F9" transform="translate(5.165060, 24.822266) rotate(-630.000000) translate(-5.165060, -24.822266) "></path>
                            <path d="M24.1086087,41.0201871 C24.1086087,40.3037921 24.6843768,39.7230392 25.4057787,39.7230392 L25.4057787,39.7230392 C26.1221859,39.7230392 26.7029487,40.2938649 26.7029487,41.0201871 L26.7029487,48.505891 C26.7029487,49.222286 26.1271805,49.8030388 25.4057787,49.8030388 L25.4057787,49.8030388 C24.6893715,49.8030388 24.1086087,49.2322131 24.1086087,48.505891 L24.1086087,41.0201871 Z" id="Rectangle-Copy-5" fill="#38A8F9" transform="translate(25.405779, 44.763039) rotate(-540.000000) translate(-25.405779, -44.763039) "></path>
                            <path d="M24.1086087,1.42220802 C24.1086087,0.705813029 24.6843768,0.12506014 25.4057787,0.12506014 L25.4057787,0.12506014 C26.1221859,0.12506014 26.7029487,0.695885868 26.7029487,1.42220802 L26.7029487,8.90791189 C26.7029487,9.62430688 26.1271805,10.2050598 25.4057787,10.2050598 L25.4057787,10.2050598 C24.6893715,10.2050598 24.1086087,9.63423404 24.1086087,8.90791189 L24.1086087,1.42220802 Z" id="Rectangle-Copy-5" fill="#38A8F9" transform="translate(25.405779, 5.165060) rotate(-540.000000) translate(-25.405779, -5.165060) "></path>
                        </g>
                        <g id="Group" stroke="none" stroke-width="1" fill="none" fill-rule="evenodd" transform="translate(750.200002, 114.400003)">
                            <polyline id="Rectangle-4-Copy" fill="#FEF6FB" points="29.0351744 23.2316952 34.2637952 28.3683033 29.0351744 33.5049114 23.8065536 28.3683033"></polyline>
                            <path d="M49.6752768,24.0907584 C49.6752768,23.2720213 50.3332975,22.6083037 51.1577567,22.6083037 L51.1577567,22.6083037 C51.9765078,22.6083037 52.6402366,23.2774612 52.6402366,24.0907584 L52.6402366,32.6458482 C52.6402366,33.4645853 51.9822159,34.1283028 51.1577567,34.1283028 L51.1577567,34.1283028 C50.3390057,34.1283028 49.6752768,33.4591454 49.6752768,32.6458482 L49.6752768,24.0907584 Z" id="Rectangle-Copy-5" fill="#CD2F81" transform="translate(51.157757, 28.368303) rotate(-630.000000) translate(-51.157757, -28.368303) "></path>
                            <path d="M4.42044548,24.0907584 C4.42044548,23.2720213 5.07846617,22.6083037 5.90292541,22.6083037 L5.90292541,22.6083037 C6.72167647,22.6083037 7.38540534,23.2774612 7.38540534,24.0907584 L7.38540534,32.6458482 C7.38540534,33.4645853 6.72738465,34.1283028 5.90292541,34.1283028 L5.90292541,34.1283028 C5.08417435,34.1283028 4.42044548,33.4591454 4.42044548,32.6458482 L4.42044548,24.0907584 Z" id="Rectangle-Copy-5" fill="#38A8F9" transform="translate(5.902925, 28.368303) rotate(-630.000000) translate(-5.902925, -28.368303) "></path>
                            <path d="M27.5526945,46.8802118 C27.5526945,46.0614747 28.2107152,45.3977572 29.0351744,45.3977572 L29.0351744,45.3977572 C29.8539254,45.3977572 30.5176543,46.0669146 30.5176543,46.8802118 L30.5176543,55.4353016 C30.5176543,56.2540387 29.8596336,56.9177563 29.0351744,56.9177563 L29.0351744,56.9177563 C28.2164233,56.9177563 27.5526945,56.2485988 27.5526945,55.4353016 L27.5526945,46.8802118 Z" id="Rectangle-Copy-5" fill="#F56E7F" transform="translate(29.035174, 51.157757) rotate(-540.000000) translate(-29.035174, -51.157757) "></path>
                            <path d="M27.5526945,1.62538053 C27.5526945,0.806643427 28.2107152,0.142925869 29.0351744,0.142925869 L29.0351744,0.142925869 C29.8539254,0.142925869 30.5176543,0.812083321 30.5176543,1.62538053 L30.5176543,10.1804703 C30.5176543,10.9992074 29.8596336,11.662925 29.0351744,11.662925 L29.0351744,11.662925 C28.2164233,11.662925 27.5526945,10.9937675 27.5526945,10.1804703 L27.5526945,1.62538053 Z" id="Rectangle-Copy-5" fill="#F48972" transform="translate(29.035174, 5.902925) rotate(-540.000000) translate(-29.035174, -5.902925) "></path>
                        </g>
                        <polyline id="Rectangle-4-Copy-6" stroke="none" fill="#FFFFFF" fill-rule="evenodd" points="285.116813 169 289.233626 173.044366 285.116813 177.088731 281 173.044366"></polyline>
                        <polyline id="Rectangle-4-Copy-3" stroke="none" fill="#48A3F5" fill-rule="evenodd" points="626.950219 147 634.900438 154.810312 626.950219 162.620624 619 154.810312"></polyline>
                        <g id="Group-18" stroke="none" stroke-width="1" fill="none" fill-rule="evenodd" transform="translate(854.000000, 36.000000)">
                            <g id="Group-14" transform="translate(25.171132, 26.965448)" fill="#FFFFFF">
                                <g id="Group-17" transform="translate(9.742546, 8.000000) rotate(-270.000000) translate(-9.742546, -8.000000) translate(1.742546, -1.500000)">
                                    <path d="M6.34481122,3.43738774 C6.34481122,2.62188324 6.99715768,1.96078621 7.81450745,1.96078621 L7.81450745,1.96078621 C8.62619826,1.96078621 9.28420368,2.61016697 9.28420368,3.43738774 L9.28420368,15.5970459 C9.28420368,16.4125504 8.63185722,17.0736475 7.81450745,17.0736475 L7.81450745,17.0736475 C7.00281664,17.0736475 6.34481122,16.4242667 6.34481122,15.5970459 L6.34481122,3.43738774 Z" id="Rectangle-Copy-5" transform="translate(7.814507, 9.517217) rotate(-90.000000) translate(-7.814507, -9.517217) "></path>
                                    <path d="M6.34481122,11.3684018 C6.34481122,10.5528973 6.99715768,9.89180024 7.81450745,9.89180024 L7.81450745,9.89180024 C8.62619826,9.89180024 9.28420368,10.541181 9.28420368,11.3684018 L9.28420368,23.5280599 C9.28420368,24.3435645 8.63185722,25.0046615 7.81450745,25.0046615 L7.81450745,25.0046615 C7.00281664,25.0046615 6.34481122,24.3552807 6.34481122,23.5280599 L6.34481122,11.3684018 Z" id="Rectangle-Copy-5" transform="translate(7.814507, 17.448231) rotate(-90.000000) translate(-7.814507, -17.448231) "></path>
                                    <path d="M6.34481122,-4.49362628 C6.34481122,-5.30913079 6.99715768,-5.97022781 7.81450745,-5.97022781 L7.81450745,-5.97022781 C8.62619826,-5.97022781 9.28420368,-5.32084706 9.28420368,-4.49362628 L9.28420368,7.66603189 C9.28420368,8.4815364 8.63185722,9.14263343 7.81450745,9.14263343 L7.81450745,9.14263343 C7.00281664,9.14263343 6.34481122,8.49325267 6.34481122,7.66603189 L6.34481122,-4.49362628 Z" id="Rectangle-Copy-5" transform="translate(7.814507, 1.586203) rotate(-90.000000) translate(-7.814507, -1.586203) "></path>
                                </g>
                            </g>
                            <path d="M12.6896224,-1.862769 C12.6896224,-2.67366483 13.3419689,-3.33102578 14.1593187,-3.33102578 L14.1593187,-3.33102578 C14.9710095,-3.33102578 15.6290149,-2.67448212 15.6290149,-1.862769 L15.6290149,30.4144195 C15.6290149,31.2253153 14.9766684,31.8826763 14.1593187,31.8826763 L14.1593187,31.8826763 C13.3476279,31.8826763 12.6896224,31.2261326 12.6896224,30.4144195 L12.6896224,-1.862769 Z" id="Rectangle-Copy-8" fill="#F48972" transform="translate(14.159319, 14.275825) rotate(-135.000000) translate(-14.159319, -14.275825) "></path>
                            <path d="M52.3446926,37.7923011 C52.3446926,36.9814053 52.997039,36.3240444 53.8143888,36.3240444 L53.8143888,36.3240444 C54.6260796,36.3240444 55.284085,36.980588 55.284085,37.7923011 L55.284085,70.0694896 C55.284085,70.8803855 54.6317386,71.5377464 53.8143888,71.5377464 L53.8143888,71.5377464 C53.002698,71.5377464 52.3446926,70.8812028 52.3446926,70.0694896 L52.3446926,37.7923011 Z" id="Rectangle-Copy-8" fill="#CD2F81" transform="translate(53.814389, 53.930895) rotate(-135.000000) translate(-53.814389, -53.930895) "></path>
                            <path d="M52.0646485,-1.58272488 C52.0646485,-2.3936207 52.7169949,-3.05098166 53.5343447,-3.05098166 L53.5343447,-3.05098166 C54.3460355,-3.05098166 55.0040409,-2.394438 55.0040409,-1.58272488 L55.0040409,30.6944636 C55.0040409,31.5053595 54.3516945,32.1627204 53.5343447,32.1627204 L53.5343447,32.1627204 C52.7226539,32.1627204 52.0646485,31.5061767 52.0646485,30.6944636 L52.0646485,-1.58272488 Z" id="Rectangle-Copy-8" fill="#694095" transform="translate(53.534345, 14.555869) rotate(-405.000000) translate(-53.534345, -14.555869) "></path>
                            <path d="M12.4095783,38.0723453 C12.4095783,37.2614494 13.0619248,36.6040885 13.8792745,36.6040885 L13.8792745,36.6040885 C14.6909654,36.6040885 15.3489708,37.2606321 15.3489708,38.0723453 L15.3489708,70.3495338 C15.3489708,71.1604296 14.6966243,71.8177905 13.8792745,71.8177905 L13.8792745,71.8177905 C13.0675837,71.8177905 12.4095783,71.1612469 12.4095783,70.3495338 L12.4095783,38.0723453 Z" id="Rectangle-Copy-8" fill="#38A8F9" transform="translate(13.879275, 54.210940) rotate(-405.000000) translate(-13.879275, -54.210940) "></path>
                        </g>
                        <polygon id="Triangle-2" stroke="none" fill="#442268" fill-rule="evenodd" points="1060 293.654841 1079 355.654841 1041 355.654841"></polygon>
                        <polygon id="Triangle-2" stroke="none" fill="#694095" fill-rule="evenodd" points="1356 269.154841 1390 380.154841 1322 380.154841"></polygon>
                        <g id="Group-31" stroke="none" stroke-width="1" fill="none" fill-rule="evenodd" transform="translate(1035.000000, 188.044366)">
                            <path d="M13.7779085,53.5444746 C13.7779085,53.5444746 13.8119679,10.4192716 13.8119679,6.71562096 C13.8119679,3.01197035 10.7413295,0.00956831527 6.95350501,0.00956831527 C3.16568053,0.00956831527 0.0950420798,3.01197035 0.0950420798,6.71562096" id="Oval-Copy-4" stroke="#FFFFFF" stroke-width="1.39999998"></path>
                            <path d="M27.5724294,53.5444746 C27.5724294,53.5444746 27.6064888,10.4192716 27.6064888,6.71562096 C27.6064888,3.01197035 24.5358504,0.00956831527 20.7480259,0.00956831527 C16.9602014,0.00956831527 13.8895629,3.01197035 13.8895629,6.71562096" id="Oval-Copy-4" stroke="#FFFFFF" stroke-width="1.39999998"></path>
                            <path d="M41.3669502,53.5444746 C41.3669502,53.5444746 41.4010097,10.4192716 41.4010097,6.71562096 C41.4010097,3.01197035 38.3303712,0.00956831527 34.5425467,0.00956831527 C30.7547223,0.00956831527 27.6840838,3.01197035 27.6840838,6.71562096" id="Oval-Copy-4" stroke="#FFFFFF" stroke-width="1.39999998"></path>
                        </g>
                        <g id="Group-6" stroke="none" stroke-width="1" fill="none" fill-rule="evenodd" transform="translate(1164.973829, 282.900000)">
                            <polygon id="Rectangle-3-Copy-19" fill="#3F0F6F" points="16.4803707 0.604028304 16.6490758 207.293379 33.9740753 207.293379 32.2665552 123.155521 29.9803703 10.504028"></polygon>
                            <path d="M23.8453897,209.813643 C28.817988,209.813643 32.8591888,205.792812 32.8717307,200.806482 L33.3327149,17.5314525 C33.3452271,12.556935 29.3327927,8.52429177 24.36117,8.52429177 L9.27457129,8.52429177 C4.30721168,8.52429177 0.283741035,12.5451229 0.28792019,17.5314525 L0.441527115,200.806482 C0.44569637,205.781 4.48704817,209.813643 9.45276191,209.813643 L23.8453897,209.813643 Z" id="Rectangle-3-Copy-35" fill="#3F0F6F"></path>
                        </g>
                        <path d="M1175.56213,483.289351 C1180.52913,483.289351 1184.57352,479.26852 1184.59565,474.28219 L1185.40886,291.007161 C1185.43094,286.032643 1181.41538,282 1176.44402,282 L1136.10657,282 C1131.13335,282 1127.1077,286.020831 1127.11508,291.007161 L1127.38605,474.28219 C1127.39341,479.256708 1131.42987,483.289351 1136.39292,483.289351 L1175.56213,483.289351 Z" id="Rectangle-3-Copy-20" stroke="none" fill="#CD2F81" fill-rule="evenodd"></path>
                        <g id="Group-27" stroke="none" stroke-width="1" fill="none" fill-rule="evenodd" transform="translate(430.000000, 0.000000)">
                            <ellipse id="Oval-Copy-4" fill="url(#linearGradient-5)" transform="translate(123.514331, 85.926414) rotate(-180.000000) translate(-123.514331, -85.926414) " cx="123.514331" cy="85.9264145" rx="54.3686246" ry="53.1604329"></ellipse>
                            <path d="M46.6059015,158.997768 C88.2859641,158.997768 122.074331,125.960253 122.074331,85.2064145 C122.074331,44.4525756 88.2859641,11.4150615 46.6059015,11.4150615" id="Oval-Copy-4" stroke="#EEFF88" stroke-width="1.43999988" transform="translate(84.340116, 85.206415) rotate(-180.000000) translate(-84.340116, -85.206415) "></path>
                            <ellipse id="Oval-Copy-4" fill="url(#linearGradient-6)" transform="translate(41.658860, 12.324664) rotate(-180.000000) translate(-41.658860, -12.324664) " cx="41.6588602" cy="12.3246635" rx="12.1054943" ry="11.8364834"></ellipse>
                            <rect id="Rectangle-3-Copy-29" fill="#EA567C" x="0.364391149" y="112.585068" width="118.07999" height="13.6799988" rx="6.83999941"></rect>
                            <rect id="Rectangle-3" fill="#EEFF88" transform="translate(139.105545, 139.170622) rotate(-45.000000) translate(-139.105545, -139.170622) " x="132.214398" y="132.279475" width="13.7822946" height="13.7822946" rx="0.719999938"></rect>
                            <g id="Group-26" transform="translate(154.799987, 94.854413)">
                                <rect id="Rectangle-3" stroke="#EEFF88" stroke-width="0.950399977" transform="translate(43.718399, 12.606786) rotate(-45.000000) translate(-43.718399, -12.606786) " x="40.391999" y="9.28038561" width="6.65279984" height="6.65279984" rx="1.90079995"></rect>
                                <rect id="Rectangle-3" stroke="#EEFF88" stroke-width="0.950399977" transform="translate(24.710399, 12.606786) rotate(-45.000000) translate(-24.710399, -12.606786) " x="16.639952" y="4.53633809" width="16.1408949" height="16.1408949" rx="1.90079995"></rect>
                                <rect id="Rectangle-3" fill="#EEFF88" transform="translate(24.710399, 12.606786) rotate(-45.000000) translate(-24.710399, -12.606786) " x="22.3329335" y="10.2293196" width="4.75493176" height="4.75493176"></rect>
                                <rect id="Rectangle-3" stroke="#EEFF88" stroke-width="0.950399977" transform="translate(5.702400, 12.606786) rotate(-45.000000) translate(-5.702400, -12.606786) " x="2.37599994" y="9.28038561" width="6.65279984" height="6.65279984" rx="1.90079995"></rect>
                            </g>
                        </g>
                        <g id="Group-16" stroke="none" stroke-width="1" fill="none" fill-rule="evenodd" transform="translate(945.000000, 263.000000)">
                            <g id="Group-6" transform="translate(38.699999, 0.900000)" fill="#CD2F81">
                                <polygon id="Rectangle-3-Copy-19" points="16.4803707 0.604028304 16.6490758 207.293379 33.9740753 207.293379 32.2665552 123.155521 29.9803703 10.504028"></polygon>
                                <path d="M23.8453897,209.813643 C28.817988,209.813643 32.8591888,205.792812 32.8717307,200.806482 L33.3327149,17.5314525 C33.3452271,12.556935 29.3327927,8.52429177 24.36117,8.52429177 L9.27457129,8.52429177 C4.30721168,8.52429177 0.283741035,12.5451229 0.28792019,17.5314525 L0.441527115,200.806482 C0.44569637,205.781 4.48704817,209.813643 9.45276191,209.813643 L23.8453897,209.813643 Z" id="Rectangle-3-Copy-35"></path>
                            </g>
                            <path d="M49.2883027,201.289351 C54.2553028,201.289351 58.2996929,197.26852 58.3218178,192.28219 L59.1350325,9.00716078 C59.1571051,4.03264324 55.1415474,0 50.1701912,0 L9.83273685,0 C4.85951917,0 0.833874538,4.0208311 0.841246917,9.00716078 L1.1122224,192.28219 C1.11957731,197.256708 5.15603981,201.289351 10.1190889,201.289351 L49.2883027,201.289351 Z" id="Rectangle-3-Copy-20" fill="#F8697B"></path>
                        </g>
                        <g id="Group-11" stroke="none" stroke-width="1" fill="none" fill-rule="evenodd" transform="translate(947.000000, 43.117590)">
                            <path d="M44.5617602,25.06597 C44.5617602,23.544071 45.7955133,22.310328 47.3105254,22.310328 L47.3105254,22.310328 C48.8286264,22.310328 50.0592905,23.5330925 50.0592905,25.06597 L50.0592905,147.236241 C50.0592905,148.758141 48.8255374,149.991883 47.3105254,149.991883 L47.3105254,149.991883 C45.7924243,149.991883 44.5617602,148.769119 44.5617602,147.236241 L44.5617602,25.06597 Z" id="Rectangle-Copy-4" fill="url(#linearGradient-7)" transform="translate(47.310525, 86.151106) rotate(-315.000000) translate(-47.310525, -86.151106) "></path>
                            <path d="M100.955416,21.4054771 C100.955416,19.8874019 102.189169,18.6567588 103.704181,18.6567588 L103.704181,18.6567588 C105.222282,18.6567588 106.452946,19.8818837 106.452946,21.4054771 L106.452946,37.268041 C106.452946,38.7861162 105.219193,40.0167593 103.704181,40.0167593 L103.704181,40.0167593 C102.18608,40.0167593 100.955416,38.7916343 100.955416,37.268041 L100.955416,21.4054771 Z" id="Rectangle-Copy-5" fill="#CD2F81" transform="translate(103.704181, 29.336759) rotate(-315.000000) translate(-103.704181, -29.336759) "></path>
                            <path d="M120.179417,2.18147663 C120.179417,0.663401429 121.41317,-0.567241672 122.928182,-0.567241672 L122.928182,-0.567241672 C124.446283,-0.567241672 125.676947,0.657883272 125.676947,2.18147663 L125.676947,18.0440405 C125.676947,19.5621157 124.443194,20.7927588 122.928182,20.7927588 L122.928182,20.7927588 C121.410081,20.7927588 120.179417,19.5676339 120.179417,18.0440405 L120.179417,2.18147663 Z" id="Rectangle-Copy-6" fill="#FFFFFF" transform="translate(122.928182, 10.112759) rotate(-315.000000) translate(-122.928182, -10.112759) "></path>
                        </g>
                        <g id="Group-19" stroke="none" stroke-width="1" fill="none" fill-rule="evenodd" transform="translate(539.000000, 182.000000)">
                            <g id="Group-6" transform="translate(14.000000, 1.000000)" fill="#442268">
                                <polygon id="Rectangle-3-Copy-19" points="18.3115234 0.671142578 18.4989736 230.325983 37.7489736 230.325983 35.8517289 136.839471 33.3115234 11.6711426"></polygon>
                                <path d="M26.4948781,233.126276 C32.0199875,233.126276 36.5102107,228.658686 36.5241462,223.11832 L37.0363508,19.4793922 C37.0502533,13.9521504 32.5919928,9.47143555 27.0679674,9.47143555 L10.3050795,9.47143555 C4.78579088,9.47143555 0.315267825,13.9390258 0.319911331,19.4793922 L0.490585696,223.11832 C0.495218202,228.645561 4.98560922,233.126276 10.5030691,233.126276 L26.4948781,233.126276 Z" id="Rectangle-3-Copy-35"></path>
                            </g>
                            <path d="M26.1833547,223.654841 C31.708464,223.654841 36.1986873,219.18725 36.2126228,213.646884 L36.7248274,10.0079567 C36.7387298,4.48071483 32.2804693,0 26.756444,0 L9.99355605,0 C4.47426745,0 0.00374438786,4.46759023 0.0083878936,10.0079567 L0.179062259,213.646884 C0.183694765,219.174126 4.67408578,223.654841 10.1915456,223.654841 L26.1833547,223.654841 Z" id="Rectangle-3-Copy-20" fill="#694095"></path>
                        </g>
                        <g id="Group-15" stroke="none" stroke-width="1" fill="none" fill-rule="evenodd" transform="translate(486.159659, 240.498563)">
                            <path d="M11.2784204,60.2104688 C11.2784204,57.6864916 13.3171306,55.6404038 15.8436666,55.6404038 L17.552053,55.6404038 C20.0733689,55.6404038 22.1172993,57.6842283 22.1172993,60.2104688 L22.1172993,82.967357 C22.1172993,85.4913342 20.0785891,87.537422 17.552053,87.537422 L15.8436666,87.537422 C13.3223507,87.537422 11.2784204,85.4935975 11.2784204,82.967357 L11.2784204,60.2104688 Z" id="Rectangle-Copy-5" fill="#CD2F81" transform="translate(16.697860, 71.588913) rotate(-90.000000) translate(-16.697860, -71.588913) "></path>
                            <path d="M11.2784204,76.5924304 C11.2784204,74.0684532 13.3171306,72.0223654 15.8436666,72.0223654 L17.552053,72.0223654 C20.0733689,72.0223654 22.1172993,74.0661899 22.1172993,76.5924304 L22.1172993,99.3493186 C22.1172993,101.873296 20.0785891,103.919384 17.552053,103.919384 L15.8436666,103.919384 C13.3223507,103.919384 11.2784204,101.875559 11.2784204,99.3493186 L11.2784204,76.5924304 Z" id="Rectangle-Copy-5" fill="#694095" transform="translate(16.697860, 87.970874) rotate(-90.000000) translate(-16.697860, -87.970874) "></path>
                            <path d="M12.2784204,43.8285072 L12.2784204,66.5853954 C12.2784204,68.558729 13.874014,70.1554604 15.8436666,70.1554604 L17.552053,70.1554604 C19.5240879,70.1554604 21.1172993,68.5593067 21.1172993,66.5853954 L21.1172993,43.8285072 C21.1172993,41.8551737 19.5217056,40.2584422 17.552053,40.2584422 L15.8436666,40.2584422 C13.8716317,40.2584422 12.2784204,41.8545959 12.2784204,43.8285072 Z" id="Rectangle-Copy-5" stroke="#EEFF88" stroke-width="2" transform="translate(16.697860, 55.206951) rotate(-90.000000) translate(-16.697860, -55.206951) "></path>
                            <path d="M11.2784204,11.0645841 C11.2784204,8.54060687 13.3171306,6.49451907 15.8436666,6.49451907 L17.552053,6.49451907 C20.0733689,6.49451907 22.1172993,8.53834358 22.1172993,11.0645841 L22.1172993,33.8214722 C22.1172993,36.3454495 20.0785891,38.3915373 17.552053,38.3915373 L15.8436666,38.3915373 C13.3223507,38.3915373 11.2784204,36.3477127 11.2784204,33.8214722 L11.2784204,11.0645841 Z" id="Rectangle-Copy-5" fill="#F48972" transform="translate(16.697860, 22.443028) rotate(-90.000000) translate(-16.697860, -22.443028) "></path>
                            <path d="M11.2784204,27.4465457 C11.2784204,24.9225684 13.3171306,22.8764806 15.8436666,22.8764806 L17.552053,22.8764806 C20.0733689,22.8764806 22.1172993,24.9203052 22.1172993,27.4465457 L22.1172993,50.2034338 C22.1172993,52.727411 20.0785891,54.7734988 17.552053,54.7734988 L15.8436666,54.7734988 C13.3223507,54.7734988 11.2784204,52.7296743 11.2784204,50.2034338 L11.2784204,27.4465457 Z" id="Rectangle-Copy-5" fill="#38A8F9" transform="translate(16.697860, 38.824990) rotate(-90.000000) translate(-16.697860, -38.824990) "></path>
                            <path d="M11.2784204,-5.3173775 C11.2784204,-7.84135471 13.3171306,-9.88744251 15.8436666,-9.88744251 L17.552053,-9.88744251 C20.0733689,-9.88744251 22.1172993,-7.843618 22.1172993,-5.3173775 L22.1172993,17.4395107 C22.1172993,19.9634879 20.0785891,22.0095757 17.552053,22.0095757 L15.8436666,22.0095757 C13.3223507,22.0095757 11.2784204,19.9657512 11.2784204,17.4395107 L11.2784204,-5.3173775 Z" id="Rectangle-Copy-5" fill="#CD2F81" transform="translate(16.697860, 6.061067) rotate(-90.000000) translate(-16.697860, -6.061067) "></path>
                        </g>
                        <g id="Group-30" stroke="none" stroke-width="1" fill="none" fill-rule="evenodd" transform="translate(867.000000, 154.000000)">
                            <path d="M15.8917645,31.3601585 C15.8917645,30.7211318 16.4038594,30.2030983 17.0454827,30.2030983 L17.0454827,30.2030983 C17.6826637,30.2030983 18.1992009,30.7176386 18.1992009,31.3601585 L18.1992009,62.6597545 C18.1992009,63.2987812 17.687106,63.8168147 17.0454827,63.8168147 L17.0454827,63.8168147 C16.4083017,63.8168147 15.8917645,63.3022744 15.8917645,62.6597545 L15.8917645,31.3601585 Z" id="Rectangle-Copy-5" fill="#EEFF88" transform="translate(17.045483, 47.009957) rotate(-90.000000) translate(-17.045483, -47.009957) "></path>
                            <path d="M15.8917645,1.0481604 C15.8917645,0.409133698 16.4038594,-0.1088998 17.0454827,-0.1088998 L17.0454827,-0.1088998 C17.6826637,-0.1088998 18.1992009,0.405640505 18.1992009,1.0481604 L18.1992009,32.3477564 C18.1992009,32.9867831 17.687106,33.5048166 17.0454827,33.5048166 L17.0454827,33.5048166 C16.4083017,33.5048166 15.8917645,32.9902763 15.8917645,32.3477564 L15.8917645,1.0481604 Z" id="Rectangle-Copy-5" fill="#EEFF88" transform="translate(17.045483, 16.697958) rotate(-90.000000) translate(-17.045483, -16.697958) "></path>
                            <path d="M15.8917645,16.2041595 C15.8917645,15.5651328 16.4038594,15.0470993 17.0454827,15.0470993 L17.0454827,15.0470993 C17.6826637,15.0470993 18.1992009,15.5616396 18.1992009,16.2041595 L18.1992009,47.5037554 C18.1992009,48.1427821 17.687106,48.6608156 17.0454827,48.6608156 L17.0454827,48.6608156 C16.4083017,48.6608156 15.8917645,48.1462753 15.8917645,47.5037554 L15.8917645,16.2041595 Z" id="Rectangle-Copy-5" fill="#EEFF88" transform="translate(17.045483, 31.853957) rotate(-90.000000) translate(-17.045483, -31.853957) "></path>
                            <path d="M15.8917645,-14.1078387 C15.8917645,-14.7468654 16.4038594,-15.2648989 17.0454827,-15.2648989 L17.0454827,-15.2648989 C17.6826637,-15.2648989 18.1992009,-14.7503586 18.1992009,-14.1078387 L18.1992009,17.1917573 C18.1992009,17.830784 17.687106,18.3488175 17.0454827,18.3488175 L17.0454827,18.3488175 C16.4083017,18.3488175 15.8917645,17.8342772 15.8917645,17.1917573 L15.8917645,-14.1078387 Z" id="Rectangle-Copy-5" fill="#EEFF88" transform="translate(17.045483, 1.541959) rotate(-90.000000) translate(-17.045483, -1.541959) "></path>
                        </g>
                        <rect id="Rectangle-3-Copy-29" stroke="none" fill="#EEFF88" fill-rule="evenodd" x="531" y="252" width="100" height="3.80999994" rx="1.90499997"></rect>
                        <g id="Group-23" stroke="none" stroke-width="1" fill="none" fill-rule="evenodd" transform="translate(308.233626, 145.000000)">
                            <ellipse id="Oval-Copy-3" fill="#F48972" cx="69.3829438" cy="49.3547858" rx="3.27646778" ry="3.20365739"></ellipse>
                            <ellipse id="Oval-Copy-3" fill="#F48972" cx="69.3829438" cy="3.20365739" rx="3.27646778" ry="3.20365739"></ellipse>
                            <rect id="Rectangle-2" stroke="#FFFFFF" stroke-width="2.39999986" transform="translate(69.382944, 26.279222) rotate(-315.000000) translate(-69.382944, -26.279222) " x="63.583356" y="20.4796338" width="11.5991755" height="11.5991755" rx="2.23999983"></rect>
                            <path d="M91.2638861,21.9265308 C91.2638861,21.1393299 91.8965611,20.5011775 92.6892637,20.5011775 L92.6892637,20.5011775 C93.4764781,20.5011775 94.1146414,21.1445603 94.1146414,21.9265308 L94.1146414,30.1520948 C94.1146414,30.9392957 93.4819664,31.5774481 92.6892637,31.5774481 L92.6892637,31.5774481 C91.9020494,31.5774481 91.2638861,30.9340653 91.2638861,30.1520948 L91.2638861,21.9265308 Z" id="Rectangle-Copy-5" fill="#CD2F81" transform="translate(92.689264, 26.039313) rotate(-630.000000) translate(-92.689264, -26.039313) "></path>
                            <path d="M45.1127577,21.9265308 C45.1127577,21.1393299 45.7454327,20.5011775 46.5381353,20.5011775 L46.5381353,20.5011775 C47.3253496,20.5011775 47.9635129,21.1445603 47.9635129,21.9265308 L47.9635129,30.1520948 C47.9635129,30.9392957 47.3308379,31.5774481 46.5381353,31.5774481 L46.5381353,31.5774481 C45.750921,31.5774481 45.1127577,30.9340653 45.1127577,30.1520948 L45.1127577,21.9265308 Z" id="Rectangle-Copy-5" fill="#CD2F81" transform="translate(46.538135, 26.039313) rotate(-630.000000) translate(-46.538135, -26.039313) "></path>
                            <path d="M14.6222601,11.4295043 C14.6222601,10.6459092 15.2549351,10.0106799 16.0476377,10.0106799 L16.0476377,10.0106799 C16.8348521,10.0106799 17.4730154,10.651036 17.4730154,11.4295043 L17.4730154,40.6491213 C17.4730154,41.4327164 16.8403404,42.0679456 16.0476377,42.0679456 L16.0476377,42.0679456 C15.2604234,42.0679456 14.6222601,41.4275896 14.6222601,40.6491213 L14.6222601,11.4295043 Z" id="Rectangle-Copy-5" fill="#F8697B" transform="translate(16.047638, 26.039313) rotate(-630.000000) translate(-16.047638, -26.039313) "></path>
                        </g>
                        <rect id="Rectangle-3-Copy-29" stroke="none" fill="#EEFF88" fill-rule="evenodd" x="320" y="228" width="256" height="3.81054688" rx="1.90527344"></rect>
                        <rect id="Rectangle-3-Copy-29" stroke="none" fill="#EEFF88" fill-rule="evenodd" x="1069" y="267.136719" width="256" height="1.53710938" rx="0.768554688"></rect>
                        <g id="Group-5" stroke="none" stroke-width="1" fill="none" fill-rule="evenodd" transform="translate(418.499997, 61.100000) rotate(-270.000000) translate(-418.499997, -61.100000) translate(393.499997, 36.100000)">
                            <path d="M25.0468625,17.9357753 L31.8781472,24.6468438 L25.0468625,31.3579124 L18.2155777,24.6468438 L25.0468625,17.9357753 Z M25.0468625,20.9091877 L21.2422532,24.6468438 L25.0468625,28.3844999 L28.8514717,24.6468438 L25.0468625,20.9091877 Z" id="Combined-Shape" fill="#FFFFFF"></path>
                            <path d="M26.1359227,-0.88853053 C22.2001567,-0.88853053 19.0095879,2.2311367 19.0095879,6.07944126 C19.0095879,9.92774582 22.2001567,13.0474131 26.1359227,13.0474131 C28.0009505,13.0474131 29.6986446,12.3468934 30.9688016,11.2002752 L29.5905222,9.84625052 C28.6744729,10.6499873 27.4635913,11.1389001 26.1359227,11.1389001 C23.2781548,11.1389001 20.9614762,8.8737032 20.9614762,6.07944126 C20.9614762,3.28517933 23.2781548,1.01998246 26.1359227,1.01998246 C27.529781,1.01998246 28.7949174,1.55885899 29.7253081,2.43516649 L31.084137,1.0650593 C29.8023354,-0.14450505 28.057992,-0.88853053 26.1359227,-0.88853053 Z" id="Combined-Shape" fill="url(#linearGradient-8)" transform="translate(25.046862, 6.079441) rotate(-270.000000) translate(-25.046862, -6.079441) "></path>
                            <path d="M26.1359227,36.2462746 C22.2001567,36.2462746 19.0095879,39.3659418 19.0095879,43.2142464 C19.0095879,47.062551 22.2001567,50.1822182 26.1359227,50.1822182 C28.0009505,50.1822182 29.6986446,49.4816985 30.9688016,48.3350803 L29.5905222,46.9810557 C28.6744729,47.7847924 27.4635913,48.2737052 26.1359227,48.2737052 C23.2781548,48.2737052 20.9614762,46.0085083 20.9614762,43.2142464 C20.9614762,40.4199845 23.2781548,38.1547876 26.1359227,38.1547876 C27.529781,38.1547876 28.7949174,38.6936641 29.7253081,39.5699716 L31.084137,38.1998644 C29.8023354,36.9903001 28.057992,36.2462746 26.1359227,36.2462746 Z" id="Combined-Shape" fill="url(#linearGradient-9)" transform="translate(25.046862, 43.214246) rotate(-450.000000) translate(-25.046862, -43.214246) "></path>
                            <path d="M45.009616,17.6788907 C41.07385,17.6788907 37.8832812,20.7985579 37.8832812,24.6468625 C37.8832812,28.495167 41.07385,31.6148343 45.009616,31.6148343 C46.8746438,31.6148343 48.5723379,30.9143146 49.8424949,29.7676964 L48.4642155,28.4136717 C47.5481662,29.2174085 46.3372846,29.7063213 45.009616,29.7063213 C42.1518481,29.7063213 39.8351695,27.4411244 39.8351695,24.6468625 C39.8351695,21.8526005 42.1518481,19.5874037 45.009616,19.5874037 C46.4034743,19.5874037 47.6686107,20.1262802 48.5990014,21.0025877 L49.9578303,19.6324805 C48.6760287,18.4229162 46.9316853,17.6788907 45.009616,17.6788907 Z" id="Combined-Shape" fill="url(#linearGradient-8)" transform="translate(43.920556, 24.646862) rotate(-540.000000) translate(-43.920556, -24.646862) "></path>
                            <path d="M7.87481088,17.6788907 C3.93904486,17.6788907 0.748476093,20.7985579 0.748476093,24.6468625 C0.748476093,28.495167 3.93904486,31.6148343 7.87481088,31.6148343 C9.73983863,31.6148343 11.4375327,30.9143146 12.7076898,29.7676964 L11.3294103,28.4136717 C10.413361,29.2174085 9.20247945,29.7063213 7.87481088,29.7063213 C5.01704299,29.7063213 2.70036438,27.4411244 2.70036438,24.6468625 C2.70036438,21.8526005 5.01704299,19.5874037 7.87481088,19.5874037 C9.26866912,19.5874037 10.5338055,20.1262802 11.4641962,21.0025877 L12.8230251,19.6324805 C11.5412235,18.4229162 9.79688017,17.6788907 7.87481088,17.6788907 Z" id="Combined-Shape" fill="url(#linearGradient-8)" transform="translate(6.785751, 24.646862) rotate(-720.000000) translate(-6.785751, -24.646862) "></path>
                        </g>
                    </g>
                </g>
            </g>
        </g>
    </g>
</svg>