<?xml version="1.0" encoding="UTF-8"?>
<svg width="210px" height="128px" viewBox="0 0 210 128" version="1.1" xmlns="http://www.w3.org/2000/svg" xmlns:xlink="http://www.w3.org/1999/xlink">
    <!-- Generator: Sketch 45 (43475) - http://www.bohemiancoding.com/sketch -->
    <title>Group 66</title>
    <desc>Created with Sketch.</desc>
    <defs></defs>
    <g id="V2-Final" stroke="none" stroke-width="1" fill="none" fill-rule="evenodd">
        <g id="V2-Homepage-Copy" transform="translate(-1111.000000, -1278.000000)">
            <g id="Group-66" transform="translate(1111.000000, 1278.000000)">
                <rect id="Rectangle-3-Copy" fill="#EEFF88" transform="translate(127.840651, 34.218336) rotate(-315.000000) translate(-127.840651, -34.218336) " x="124.922614" y="31.3002989" width="5.83607353" height="5.83607353" rx="0.200000003"></rect>
                <rect id="Rectangle-3-Copy" fill="#EEFF88" transform="translate(127.840651, 50.011218) rotate(-315.000000) translate(-127.840651, -50.011218) " x="124.922614" y="47.0931814" width="5.83607353" height="5.83607353" rx="0.200000003"></rect>
                <rect id="Rectangle-3-Copy" fill="#EEFF88" transform="translate(127.840651, 65.804101) rotate(-315.000000) translate(-127.840651, -65.804101) " x="124.922614" y="62.8860638" width="5.83607353" height="5.83607353" rx="0.200000003"></rect>
                <rect id="Rectangle-3-Copy-52" fill="#CD2F81" transform="translate(167.742438, 45.484837) rotate(-45.000000) translate(-167.742438, -45.484837) " x="165.317386" y="43.0597843" width="4.85010492" height="4.85010492" rx="0.300000012"></rect>
                <rect id="Rectangle-3-Copy-53" fill="#CD2F81" transform="translate(193.399470, 45.484837) rotate(-45.000000) translate(-193.399470, -45.484837) " x="190.974418" y="43.0597843" width="4.85010492" height="4.85010492" rx="0.300000012"></rect>
                <rect id="Rectangle-3-Copy-54" fill="#FFFFFF" transform="translate(180.374042, 45.484837) rotate(-45.000000) translate(-180.374042, -45.484837) " x="177.94899" y="43.0597843" width="4.85010492" height="4.85010492" rx="0.300000012"></rect>
                <path d="M133.201044,12.8836598 C132.258984,11.5515038 130.685685,10.6787424 128.903909,10.6787424 C126.020609,10.6787424 123.683233,12.9641769 123.683233,15.7834032 C123.683233,18.6026295 126.020609,20.888064 128.903909,20.888064 C130.685685,20.888064 132.258984,20.0153026 133.201044,18.6831467 C132.996643,18.7256499 132.784624,18.748014 132.567263,18.748014 C130.892743,18.748014 129.535275,17.4207125 129.535275,15.7834032 C129.535275,14.1460939 130.892743,12.8187924 132.567263,12.8187924 C132.784624,12.8187924 132.996643,12.8411565 133.201044,12.8836598 Z" id="Combined-Shape" fill="#FEF6FB" transform="translate(128.442138, 15.783403) rotate(-45.000000) translate(-128.442138, -15.783403) "></path>
                <rect id="Rectangle-3-Copy-57" fill="#14A9F1" transform="translate(180.861851, 12.249913) rotate(-90.000000) translate(-180.861851, -12.249913) " x="177.488087" y="-3.48252207" width="6.74752831" height="31.4648695" rx="0.799999952"></rect>
                <rect id="Rectangle-3-Copy-63" stroke="#CD2F81" transform="translate(128.875009, 55.343289) rotate(-90.000000) translate(-128.875009, -55.343289) " x="74.1117358" y="40.5727727" width="109.526546" height="29.5410332" rx="0.799999952"></rect>
                <path d="M152.478961,25.1218796 L208.4966,25.1218796 C208.671485,25.1218796 208.811523,24.9857271 208.811523,24.8273707 L208.811523,0.807370823 C208.811523,0.651096478 208.67051,0.512861927 208.4966,0.512861927 L152.478961,0.512861927 C152.304076,0.512861927 152.164038,0.649014442 152.164038,0.807370823 L152.164038,24.8273707 C152.164038,24.9836451 152.305052,25.1218796 152.478961,25.1218796 Z" id="Rectangle-3-Copy-65" stroke="#14A9F1"></path>
                <path d="M152.478961,58.1218796 L208.4966,58.1218796 C208.671485,58.1218796 208.811523,57.9857271 208.811523,57.8273707 L208.811523,33.8073708 C208.811523,33.6510965 208.67051,33.5128619 208.4966,33.5128619 L152.478961,33.5128619 C152.304076,33.5128619 152.164038,33.6490144 152.164038,33.8073708 L152.164038,57.8273707 C152.164038,57.9836451 152.305052,58.1218796 152.478961,58.1218796 Z" id="Rectangle-3-Copy-65" stroke="#EEFF88"></path>
                <path d="M152.478961,109.670039 L208.4966,109.670039 C208.670101,109.670039 208.811523,109.530786 208.811523,109.365393 L208.811523,67.8175081 C208.811523,67.6506208 208.671991,67.5128619 208.4966,67.5128619 L152.478961,67.5128619 C152.30546,67.5128619 152.164038,67.6521145 152.164038,67.8175081 L152.164038,109.365393 C152.164038,109.53228 152.303571,109.670039 152.478961,109.670039 Z" id="Rectangle-3-Copy-65" stroke="#F48972"></path>
                <path d="M164.363704,77.8635788 C164.086102,77.8633194 163.861061,78.0891478 163.861061,78.3732353 L163.861061,78.3275665 C163.861061,78.6093014 164.082492,78.8378996 164.363704,78.8381624 L195.358417,78.8671241 C195.63602,78.8673835 195.861061,78.6415551 195.861061,78.3574676 L195.861061,78.4031363 C195.861061,78.1214014 195.63963,77.8928032 195.358417,77.8925405 L164.363704,77.8635788 Z" id="Rectangle-3-Copy-38" fill="#F48972" transform="translate(179.861061, 78.365351) scale(-1, 1) rotate(-180.000000) translate(-179.861061, -78.365351) "></path>
                <path d="M164.363704,85.8635788 C164.086102,85.8633194 163.861061,86.0891478 163.861061,86.3732353 L163.861061,86.3275665 C163.861061,86.6093014 164.082492,86.8378996 164.363704,86.8381624 L195.358417,86.8671241 C195.63602,86.8673835 195.861061,86.6415551 195.861061,86.3574676 L195.861061,86.4031363 C195.861061,86.1214014 195.63963,85.8928032 195.358417,85.8925405 L164.363704,85.8635788 Z" id="Rectangle-3-Copy-38" fill="#F48972" transform="translate(179.861061, 86.365351) scale(-1, 1) rotate(-180.000000) translate(-179.861061, -86.365351) "></path>
                <path d="M164.363704,93.8635788 C164.086102,93.8633194 163.861061,94.0891478 163.861061,94.3732353 L163.861061,94.3275665 C163.861061,94.6093014 164.082492,94.8378996 164.363704,94.8381624 L195.358417,94.8671241 C195.63602,94.8673835 195.861061,94.6415551 195.861061,94.3574676 L195.861061,94.4031363 C195.861061,94.1214014 195.63963,93.8928032 195.358417,93.8925405 L164.363704,93.8635788 Z" id="Rectangle-3-Copy-38" fill="#F48972" transform="translate(179.861061, 94.365351) scale(-1, 1) rotate(-180.000000) translate(-179.861061, -94.365351) "></path>
                <path d="M18.2010441,9.88365975 C17.2589838,8.55150381 15.6856848,7.67874241 13.9039086,7.67874241 C11.020609,7.67874241 8.68323279,9.9641769 8.68323279,12.7834032 C8.68323279,15.6026295 11.020609,17.888064 13.9039086,17.888064 C15.6856848,17.888064 17.2589838,17.0153026 18.2010441,15.6831467 C17.996643,15.7256499 17.7846243,15.748014 17.5672635,15.748014 C15.8927426,15.748014 14.5352752,14.4207125 14.5352752,12.7834032 C14.5352752,11.1460939 15.8927426,9.81879245 17.5672635,9.81879245 C17.7846243,9.81879245 17.996643,9.84115653 18.2010441,9.88365975 Z" id="Combined-Shape" fill="#FEF6FB" transform="translate(13.442138, 12.783403) rotate(-45.000000) translate(-13.442138, -12.783403) "></path>
                <rect id="Rectangle-3-Copy-57" fill="#14A9F1" transform="translate(62.861851, 12.249913) rotate(-90.000000) translate(-62.861851, -12.249913) " x="59.4880872" y="-3.48252207" width="6.74752831" height="31.4648695" rx="0.799999952"></rect>
                <rect id="Rectangle-3-Copy-63" stroke="#CD2F81" transform="translate(13.442138, 12.783403) rotate(-90.000000) translate(-13.442138, -12.783403) " x="1.2387515" y="0.580016243" width="24.4067739" height="24.4067739" rx="0.799999952"></rect>
                <path d="M1.62197297,68.298172 L94.8219989,68.298172 C95.0203406,68.298172 95.1713921,68.1562573 95.1713921,67.998813 L95.1713921,35.2117011 C95.1713921,35.0561552 95.0192372,34.9123421 94.8219989,34.9123421 L1.62197297,34.9123421 C1.42363132,34.9123421 1.27257976,35.0542568 1.27257976,35.2117011 L1.27257976,67.998813 C1.27257976,68.1543589 1.42473472,68.298172 1.62197297,68.298172 Z" id="Rectangle-3-Copy-64" stroke="#EEFF88"></path>
                <path d="M36.7008416,25.1218796 L95.0848962,25.1218796 C95.2830719,25.1218796 95.4342449,24.9808585 95.4342449,24.8273707 L95.4342449,0.807370823 C95.4342449,0.655926573 95.282139,0.512861927 95.0848962,0.512861927 L36.7008416,0.512861927 C36.5026659,0.512861927 36.3514929,0.653883013 36.3514929,0.807370823 L36.3514929,24.8273707 C36.3514929,24.978815 36.5035988,25.1218796 36.7008416,25.1218796 Z" id="Rectangle-3-Copy-65" stroke="#14A9F1"></path>
                <circle id="Oval-Copy" fill="#CD2F81" transform="translate(75.989853, 50.903865) rotate(-270.000000) translate(-75.989853, -50.903865) " cx="75.989853" cy="50.9038649" r="1.75076532"></circle>
                <circle id="Oval-Copy" stroke="#EEFF88" transform="translate(75.989853, 50.903865) rotate(-270.000000) translate(-75.989853, -50.903865) " cx="75.989853" cy="50.9038649" r="7.13469831"></circle>
                <path d="M1.07174538,109.87947 L94.3570452,109.87947 C94.5556103,109.87947 94.7072155,109.736755 94.7072155,109.577803 L94.7072155,78.7502447 C94.7072155,78.5933461 94.5543855,78.4485777 94.3570452,78.4485777 L1.07174538,78.4485777 C0.873180247,78.4485777 0.721575009,78.5912932 0.721575009,78.7502447 L0.721575009,109.577803 C0.721575009,109.734702 0.874405017,109.87947 1.07174538,109.87947 Z" id="Rectangle-3-Copy-64" stroke="#F48972"></path>
                <rect id="Rectangle-3" fill="#14A9F1" transform="translate(49.125776, 94.164024) rotate(-585.000000) translate(-49.125776, -94.164024) " x="47.5323805" y="92.5706283" width="3.18679162" height="3.18679162"></rect>
                <rect id="Rectangle-3" stroke="#EEFF88" transform="translate(49.125776, 94.164024) rotate(-315.000000) translate(-49.125776, -94.164024) " x="42.9839656" y="88.0222134" width="12.2836214" height="12.2836214" rx="0.799999952"></rect>
                <circle id="Oval-Copy" stroke="#14A9F1" transform="translate(76.369828, 94.164024) rotate(-270.000000) translate(-76.369828, -94.164024) " cx="76.3698283" cy="94.1640241" r="7.40833605"></circle>
                <circle id="Oval-Copy" fill="#F48972" transform="translate(76.369828, 94.164024) rotate(-270.000000) translate(-76.369828, -94.164024) " cx="76.3698283" cy="94.1640241" r="2.49347232"></circle>
                <circle id="Oval-Copy" fill="#FEF6FB" transform="translate(19.355216, 94.164024) rotate(-270.000000) translate(-19.355216, -94.164024) " cx="19.3552164" cy="94.1640241" r="1.9916991"></circle>
                <circle id="Oval-Copy" stroke="#CD2F81" transform="translate(19.355216, 94.164024) rotate(-450.000000) translate(-19.355216, -94.164024) " cx="19.3552164" cy="94.1640241" r="7.73112166"></circle>
                <path d="M13.3541649,44.8634871 C13.0818311,44.8632783 12.8610608,45.0891478 12.8610608,45.3732353 L12.8610608,45.3275665 C12.8610608,45.6093014 13.0900931,45.8378683 13.3541649,45.8380708 L51.3679567,45.8672157 C51.6402906,45.8674245 51.8610608,45.6415551 51.8610608,45.3574676 L51.8610608,45.4031363 C51.8610608,45.1214014 51.6320286,44.8928345 51.3679567,44.8926321 L13.3541649,44.8634871 Z" id="Rectangle-3-Copy-38" fill="#F48972" transform="translate(32.361061, 45.365351) scale(-1, 1) rotate(-180.000000) translate(-32.361061, -45.365351) "></path>
                <path d="M13.3541649,50.8634871 C13.0818311,50.8632783 12.8610608,51.0891478 12.8610608,51.3732353 L12.8610608,51.3275665 C12.8610608,51.6093014 13.0900931,51.8378683 13.3541649,51.8380708 L51.3679567,51.8672157 C51.6402906,51.8674245 51.8610608,51.6415551 51.8610608,51.3574676 L51.8610608,51.4031363 C51.8610608,51.1214014 51.6320286,50.8928345 51.3679567,50.8926321 L13.3541649,50.8634871 Z" id="Rectangle-3-Copy-38" fill="#F48972" transform="translate(32.361061, 51.365351) scale(-1, 1) rotate(-180.000000) translate(-32.361061, -51.365351) "></path>
                <path d="M13.3541649,56.8634871 C13.0818311,56.8632783 12.8610608,57.0891478 12.8610608,57.3732353 L12.8610608,57.3275665 C12.8610608,57.6093014 13.0900931,57.8378683 13.3541649,57.8380708 L51.3679567,57.8672157 C51.6402906,57.8674245 51.8610608,57.6415551 51.8610608,57.3574676 L51.8610608,57.4031363 C51.8610608,57.1214014 51.6320286,56.8928345 51.3679567,56.8926321 L13.3541649,56.8634871 Z" id="Rectangle-3-Copy-38" fill="#F48972" transform="translate(32.361061, 57.365351) scale(-1, 1) rotate(-180.000000) translate(-32.361061, -57.365351) "></path>
                <g id="Group-33" transform="translate(81.892309, 80.123994)" fill="#FFFFFF">
                    <circle id="Oval-Copy" cx="22.2740277" cy="12.1020593" r="11.8568196"></circle>
                    <path d="M0.100496001,46.9036108 C1.42454396,31.7355639 6.52537722,27.0950689 13.3878334,25.6824551 C15.922276,27.401508 18.9808666,28.4058233 22.2740277,28.4058233 C25.6157669,28.4058233 28.7159642,27.3716598 31.2720372,25.6059152 C38.1036424,26.9149249 43.1686837,31.4175903 44.4622548,46.9036106 L0.100495485,46.9036167 Z" id="Combined-Shape"></path>
                </g>
            </g>
        </g>
    </g>
</svg>